<ttFont>
<head>
    <!-- Most of this table will be recalculated by the compiler -->
    <tableVersion value="1.0"/>
    <fontRevision value="1.002"/>
    <checkSumAdjustment value="0x73dea882"/>
    <magicNumber value="0x5f0f3cf5"/>
    <flags value="00000000 00000011"/>
    <unitsPerEm value="1000"/>
    <created value="Thu Jan 14 16:20:48 2016"/>
    <modified value="Thu Jan 14 21:20:49 2016"/>
    <xMin value="-22"/>
    <yMin value="-300"/>
    <xMax value="699"/>
    <yMax value="1155"/>
    <macStyle value="00000000 00000000"/>
    <lowestRecPPEM value="3"/>
    <fontDirectionHint value="2"/>
    <indexToLocFormat value="0"/>
    <glyphDataFormat value="0"/>
  </head>
          <CharString index="0">
            rmoveto
            13 117 -59 callsubr
            -81 callgsubr
            -165 85 -98 338 9 hvcurveto
            -195 417 -88 callgsubr
          </CharString>
          <CharString index="1">
            rmoveto
            55 -50 47 -151 16 vhcurveto
            4 52 rlineto
            177 hlineto
            9 93 rlineto
            -276 hlineto
            -16 -217 rlineto
            140 -11 59 -14 -24 vvcurveto
            -26 -54 -8 -155 -8 vhcurveto
            6 -99 80 callgsubr
            10 96 58 76 vvcurveto
            return
          </CharString>
          <CharString index="2">
            -34 callsubr
            -65 callsubr
            -197 79 -107 144 hvcurveto
            12 532 rmoveto
            60 33 -71 -146 -135 -23 -60 -60 -60 -33 71 146 135 23 60 60 hvcurveto
            endchar
          </CharString>
          <CharString index="3">
            -106 callsubr
            endchar
          </CharString>
          <CharString index="4">
            rmoveto
            94 78 58 84 114 -135 31 -97 -65 hvcurveto
            13 49 45 24 126 36 -35 91 rcurveline
            -175 -49 -85 -91 -115 vvcurveto
            -109 69 -58 102 vhcurveto
            9 86 rmoveto
            -40 -32 26 60 -2 hvcurveto
            78 27 55 -17 -46 vvcurveto
            -33 -23 -17 -36 vhcurveto
            endchar
          </CharString>
          <CharString index="5">
            -5 68 -6 88 91 vvcurveto
            201 -73 65 -318 1 vhcurveto
            -13 -119 208 -5 49 -18 7 -77 rlinecurve
            -205 4 -87 -84 -99 vvcurveto
            return
          </CharString>
          <CharString index="6">
            -105 callgsubr
            endchar
          </CharString>
          <CharString index="7">
            rmoveto
            hintmask 0010101110000000
            -73 callgsubr
            hintmask 1000011110000000
            -86 callsubr
            hintmask 1001001110000000
            -82 callsubr
          </CharString>
          <CharString index="8">
            rmoveto
            187 153 -66 66 -115 -91 -121 92 -87 -83 192 -137 rlineto
            return
          </CharString>
          <CharString index="9">
            rmoveto
            hintmask 00111100
            -79 callgsubr
            hintmask 01011100
            -94 callsubr
            hintmask 10011100
            -11 callgsubr
            hintmask 00111100
            -93 callgsubr
          </CharString>
          <CharString index="10">
            297 15 68 125 194 vvcurveto
            107 -1 159 -2 72 vhcurveto
            16 -52 -54 9 -52 hhcurveto
            -155 -124 -104 -158 -126 79 -80 103 48 38 15 21 30 hvcurveto
            -3 -113 -24 -7 -209 -18 rrcurveto
            176 211 rmoveto
            -54 -44 40 90 74 32 36 55 23 23 -4 -7 25 hvcurveto
            -73 0 -91 -55 vvcurveto
            -7 -20 -20 -3 -20 hhcurveto
            endchar
          </CharString>
          <CharString index="11">
            rmoveto
            -62 callsubr
            -76 callsubr
          </CharString>
          <CharString index="12">
            rmoveto
            176 49 84 91 115 vvcurveto
            109 -70 58 -101 -94 -78 -58 -84 -114 135 -31 97 65 vhcurveto
            -13 -49 -46 -24 -126 -36 rrcurveto
            57 195 rmoveto
            33 23 18 35 40 33 -26 -60 2 vhcurveto
            -78 -28 -55 17 46 vvcurveto
            endchar
          </CharString>
          <CharString index="13">
            -58 -206 -50 -208 -49 -206 rrcurveto
            147 hlineto
            10 51 11 51 11 52 rrcurveto
            157 hlineto
            return
          </CharString>
          <CharString index="14">
            rmoveto
            -42 -25 22 37 -32 callsubr
            -33 0 -29 2 -25 rrcurveto
            -17 -29 -32 -10 -27 hhcurveto
            return
          </CharString>
          <CharString index="15">
            -27 callgsubr
            hintmask 10111000
            -90 callgsubr
          </CharString>
          <CharString index="16">
            52 -227 rmoveto
            -43 -19 21 24 21 15 17 24 11 hvcurveto
            44 -20 37 -18 -22 vvcurveto
            -18 -22 -16 -36 vhcurveto
            endchar
          </CharString>
          <CharString index="17">
            rmoveto
            116 75 89 126 123 -63 77 -114 -115 -76 -89 -126 -123 63 -77 114 hvcurveto
            4 326 rmoveto
            51 25 -47 -79 -69 -21 -41 -48 -51 -25 47 79 69 20 41 49 hvcurveto
            endchar
          </CharString>
          <CharString index="18">
            -44 306 rmoveto
            16 19 15 33 39 18 -19 -23 -18 -14 -18 -22 -13 vhcurveto
            -40 19 -33 18 23 vvcurveto
            return
          </CharString>
          <CharString index="19">
            -84 callsubr
            394 hlineto
            endchar
          </CharString>
          <CharString index="20">
            rmoveto
            81 -1 93 127 vvcurveto
            -133 hlineto
            1 -62 3 -85 3 -58 rrcurveto
            -124 6 -48 69 136 vvcurveto
            117 30 76 241 -19 vhcurveto
            -9 140 rlineto
            -314 -7 -98 -146 -184 vvcurveto
            -229 152 -121 297 66 vhcurveto
            return
          </CharString>
          <CharString index="21">
            -151 1 -129 2 -95 vhcurveto
            -15 -23 -24 -9 -29 hhcurveto
            -41 -27 23 82 hvcurveto
            298 vlineto
            return
          </CharString>
          <CharString index="22">
            378 -428 -104 callsubr
          </CharString>
          <CharString index="23">
            -258 137 212 106 -212 135 251 121 -398 -620 return
          </CharString>
          <CharString index="24">
            -14 -47 -24 -75 -16 -57 rrcurveto
            -4 hlineto
            -2 136 -2 84 -1 123 rrcurveto
            -136 hlineto
            7 -194 23 -213 16 -99 rrcurveto
            122 hlineto
            63 219 rlineto
            endchar
          </CharString>
          <CharString index="25">
            -59 callgsubr
            68 49 31 36 38 vhcurveto
            endchar
          </CharString>
          <CharString index="26">
            rmoveto
            -88 callsubr
          </CharString>
          <CharString index="27">
            -70 callsubr
            -163 -106 vlineto
            endchar
          </CharString>
          <CharString index="28">
            rmoveto
            hintmask 00101011
            -73 callgsubr
            hintmask 10000111
            -86 callsubr
            hintmask 10010011
            -82 callsubr
          </CharString>
          <CharString index="29">
            678 -103 callgsubr
            return
          </CharString>
          <CharString index="30">
            132 -394 -132 -113 407 hlineto
            10 113 102 callsubr
            endchar
          </CharString>
          <CharString index="31">
            -166 -7 17 -62 -1 -76 -18 -61 rlinecurve
            endchar
          </CharString>
          <CharString index="32">
            -105 callgsubr
            -64 -250 -47 callsubr
            return
          </CharString>
          <CharString index="33">
            -49 callsubr
            -4 callgsubr
            return
          </CharString>
          <CharString index="34">
            rmoveto
            hintmask 00110111
            -34 callgsubr
            hintmask 01011011
            -53 callgsubr
            endchar
          </CharString>
          <CharString index="35">
            7 rlineto
            -66 callsubr
            return
          </CharString>
          <CharString index="36">
            rmoveto
            hintmask 10101100
            -37 callgsubr
            hintmask 01011100
            -42 callsubr
            endchar
          </CharString>
          <CharString index="37">
            -163 400 -299 hlineto
            -11 -101 167 -8 rlineto
            -291 return
          </CharString>
          <CharString index="38">
            -63 callsubr
            hintmask 10011110
            113 -896 -97 callgsubr
          </CharString>
          <CharString index="39">
            207 vlineto
            hintmask 11010000
            -10 callsubr
            hintmask 10110000
            -28 callgsubr
          </CharString>
          <CharString index="40">
            -61 callsubr
            -74 -97 -56 -94 -45 -101 rlinecurve
            return
          </CharString>
          <CharString index="41">
            -7 114 -2 154 234 vvcurveto
            -142 hlineto
            return
          </CharString>
          <CharString index="42">
            197 -79 107 -144 -157 -100 -121 -227 return
          </CharString>
          <CharString index="43">
            rmoveto
            47 111 rlineto
            -147 43 -72 34 46 vvcurveto
            hintmask 10010000
            48 83 40 64 vvcurveto
            40 -30 39 -82 23 vhcurveto
            hintmask 10001000
            80 27 30 42 37 vvcurveto
            hintmask 11000000
            57 -87 47 40 vvcurveto
            35 72 29 155 41 vhcurveto
            -45 113 -241 -76 -79 -76 1 -75 rlinecurve
            hintmask 10001000
            1 -78 97 -39 -37 vvcurveto
            -24 -32 -12 -104 -12 vhcurveto
            -5 -99 rlineto
            hintmask 10010000
            88 -9 45 -22 -32 vvcurveto
            hintmask 10100000
            -42 -89 -43 -80 vvcurveto
            -78 75 -46 239 -76 vhcurveto
            endchar
          </CharString>
          <CharString index="44">
            rmoveto
            -84 -52 -49 -64 -61 54 -48 82 84 53 48 65 59 -55 50 -82 hvcurveto
            return
          </CharString>
          <CharString index="45">
            73 -22 59 52 35 93 1 83 rlinecurve
            return
          </CharString>
          <CharString index="46">
            rmoveto
            42 106 59 103 71 101 rrcurveto
            93 -319 vlineto
            -9 -95 rlineto
            212 hlineto
            3 -5 return
          </CharString>
          <CharString index="47">
            24 callsubr
            -148 hlineto
            -4 -145 rlineto
            return
          </CharString>
          <CharString index="48">
            -202 3 -75 23 -16 84 rlinecurve
            305 8 rlineto
            return
          </CharString>
          <CharString index="49">
            10 127 -279 -3 269 373 rlineto
            123 -422 vlineto
            -9 -127 271 3 -271 -373 rlineto
            -123 vlineto
            endchar
          </CharString>
          <CharString index="50">
            -50 callgsubr
            -68 -49 -31 -36 -38 vhcurveto
            return
          </CharString>
          <CharString index="51">
            -269 -96 callsubr
          </CharString>
          <CharString index="52">
            -82 61 -50 89 67 49 30 36 36 vhcurveto
            endchar
          </CharString>
          <CharString index="53">
            -88 -13 -67 -42 -43 -54 -10 88 rcurveline
            -224 hlineto
            -11 -101 112 -8 2 -79 1 -91 1 -121 rlinecurve
            -112 -106 hlineto
            return
          </CharString>
          <CharString index="54">
            394 -147 -422 vlineto
            -65 -21 -23 -48 return
          </CharString>
          <CharString index="55">
            675 -98 callgsubr
            return
          </CharString>
          <CharString index="56">
            668 -99 callsubr
            return
          </CharString>
          <CharString index="57">
            rmoveto
            113 65 57 61 44 -41 30 -47 24 hvcurveto
            return
          </CharString>
          <CharString index="58">
            rmoveto
            8 90 -50 -1 1 120 -104 -9 1 -111 return
          </CharString>
          <CharString index="59">
            -24 callgsubr
            hintmask 10011100
            -41 callsubr
            hintmask 01011100
            -83 callsubr
          </CharString>
          <CharString index="60">
            rmoveto
            432 90 -432 hlineto
            return
          </CharString>
          <CharString index="61">
            0 -44 callsubr
            return
          </CharString>
          <CharString index="62">
            rmoveto
            5 hlineto
            hintmask 11011000
            -245 -63 vlineto
            hintmask 10111000
            20 82 20 81 18 82 rrcurveto
            5 -499 rmoveto
            267 hlineto
            8 121 rlineto
            -157 137 119 106 -119 135 151 121 -360 hlineto
            -56 -204 -65 -211 -51 -205 rrcurveto
            137 hlineto
            hintmask 11011000
            12 49 12 50 12 49 rrcurveto
            90 hlineto
            endchar
          </CharString>
          <CharString index="63">
            121 137 5 callsubr
            return
          </CharString>
          <CharString index="64">
            14 callsubr
            hintmask 1011111100010000
            33 callsubr
            hintmask 1011111010100000
            -89 callsubr
            hintmask 1011111100010000
            -91 callsubr
          </CharString>
          <CharString index="65">
            -39 callsubr
            -44 -69 -21 -195 13 vhcurveto
            return
          </CharString>
          <CharString index="66">
            -124 -1 -86 -1 -136 vhcurveto
            -4 hlineto
            -16 57 -25 77 -15 48 rrcurveto
            -79 hlineto
            return
          </CharString>
          <CharString index="67">
            144 81 -3 callsubr
            return
          </CharString>
          <CharString index="68">
            -8 130 rlineto
            -260 13 -115 -104 -98 -142 269 -33 -88 vvcurveto
            return
          </CharString>
          <CharString index="69">
            rmoveto
            163 208 6 138 -164 204 -100 -81 159 -195 -164 -192 rlineto
            return
          </CharString>
          <CharString index="70">
            12 callsubr
            hintmask 11011000
            -39 callgsubr
            hintmask 10111000
            -75 callgsubr
          </CharString>
          <CharString index="71">
            -21 callgsubr
            -378 -297 -47 callsubr
            return
          </CharString>
          <CharString index="72">
            554 -99 callsubr
            return
          </CharString>
          <CharString index="73">
            rmoveto
            157 100 121 227 return
          </CharString>
          <CharString index="74">
            91 159 86.5 return
          </CharString>
          <CharString index="75">
            43 23 26 129 -14 hvcurveto
            1 return
          </CharString>
          <CharString index="76">
            hintmask 11010000
            443 hmoveto
            -23 callsubr
            hintmask 10110000
            -5 151 rlineto
            hintmask 11010000
            -54 callsubr
            return
          </CharString>
          <CharString index="77">
            33 callsubr
            hintmask 10110110
            -89 callsubr
            hintmask 10111001
            -91 callsubr
          </CharString>
          <CharString index="78">
            -69 callgsubr
            15 callsubr
            return
          </CharString>
          <CharString index="79">
            1 callsubr
            -6 callsubr
            return
          </CharString>
          <CharString index="80">
            -132 -7 rlineto
            7 -113 2 -155 -234 vvcurveto
            142 hlineto
            return
          </CharString>
          <CharString index="81">
            hintmask 1001100110000000
            383 -9 rmoveto
            152 18 -157 264 51 73 47 78 44 75 rlinecurve
            hintmask 0011010110000000
            -146 10 -36 -71 -37 -66 -43 -63 rlinecurve
            -42 -1 rlineto
            407 vlineto
            hintmask 0101011010000000
            71 callgsubr
            207 vlineto
            45 2 rlineto
            return
          </CharString>
          <CharString index="82">
            31 callgsubr
            hintmask 01011100
            -620 vlineto
            hintmask 10011100
            29 callsubr
            hintmask 10101100
            -149 -19 rmoveto
            53 callsubr
            393 39 callgsubr
            endchar
          </CharString>
          <CharString index="83">
            90 236 89 hstem
            90 112 145 111 vstem
            267 return
          </CharString>
          <CharString index="84">
            12 106 102 callsubr
            -2 97 -1 72 -1 65 58 21 65 12 73 3 rrcurveto
            return
          </CharString>
          <CharString index="85">
            -8 126 -126 130 374 13 callgsubr
            return
          </CharString>
          <CharString index="86">
            14 callgsubr
            109 105 -104 112 return
          </CharString>
          <CharString index="87">
            -92 callgsubr
            endchar
          </CharString>
          <CharString index="88">
            -61 callgsubr
            hintmask 11011000
            -17 callsubr
            endchar
          </CharString>
          <CharString index="89">
            150 -2 129 -2 96 vhcurveto
            15 23 25 9 29 hhcurveto
            return
          </CharString>
          <CharString index="90">
            126 -260 35 52 vvcurveto
            32 61 9 169 -14 vhcurveto
            return
          </CharString>
          <CharString index="91">
            132 113 -411 -113 return
          </CharString>
          <CharString index="92">
            hstemhm
            60 -14 callgsubr
            return
          </CharString>
          <CharString index="93">
            -14 114 420 114 hstem
            42 134 198 134 vstem
            267 -14 rmoveto
            149 92 134 201 195 -72 118 -153 -149 -92 -134 -201 -195 72 -118 153 hvcurveto
            return
          </CharString>
          <CharString index="94">
            -55 callgsubr
            hintmask 11011100
            -25 callgsubr
            hintmask 11101100
            54 callsubr
            hintmask 11011100
            return
          </CharString>
          <CharString index="95">
            -65 callgsubr
            60 callgsubr
            return
          </CharString>
          <CharString index="96">
            rmoveto
            209 185 81 146 145 vvcurveto
            143 -80 142 -206 184 vhcurveto
            -98 -86 rlineto
            184 -155 59 -116 -118 vvcurveto
            -116 -56 -111 -190 -159 vhcurveto
            endchar
          </CharString>
          <CharString index="97">
            193 413 rlineto
            -151 hlineto
            -112 -276 rlineto
            return
          </CharString>
          <CharString index="98">
            hintmask 10011100
            379 -9 rmoveto
            hintmask 00111100
            159 18 -169 312 154 299 rlineto
            -155 hlineto
            -117 -245 rlineto
            -40 245 -147 hlineto
            hintmask 01011100
            -620 147 253 35 vlineto
            return
          </CharString>
          <CharString index="99">
            -22 callsubr
            115 154 return
          </CharString>
          <CharString index="100">
            208 -570 -50 callsubr
            return
          </CharString>
          <CharString index="101">
            hstem
            2 callsubr
            vstem
            return
          </CharString>
          <CharString index="102">
            hstem
            49 140 171 69 callgsubr
            return
          </CharString>
          <CharString index="103">
            -31 -113 -16 -131 5 -89 return
          </CharString>
          <CharString index="104">
            143.5 return
          </CharString>
          <CharString index="105">
            0 8 -2 3 -4 -4 -2 -3 55 callsubr
            0 -9 2 -3 4 4 2 3 55 callsubr
            return
          </CharString>
          <CharString index="106">
            54 -23 29 -20 -18 vvcurveto
            -16 -29 -10 -73 -7 vhcurveto
            return
          </CharString>
          <CharString index="107">
            66 callsubr
            hstem
            313 112 vstem
            435 return
          </CharString>
          <CharString index="108">
            -16 120 412 120 return
          </CharString>
          <CharString index="109">
            35 152 176 152 return
          </CharString>
          <CharString index="110">
            15 callgsubr
            -19 callgsubr
            return
          </CharString>
          <CharString index="111">
            -15 callsubr
            hintmask 0010011110000000
            return
          </CharString>
          <CharString index="112">
            106 135 121 return
          </CharString>
          <CharString index="113">
            0 113 394 113 return
          </CharString>
          <CharString index="114">
            45 callsubr
            hstem
            142 96 95 104 vstem
            437 return
          </CharString>
          <CharString index="115">
            6 callsubr
            44 callgsubr
            return
          </CharString>
          <CharString index="116">
            0 125.5 369 125.5 return
          </CharString>
          <CharString index="117">
            45 callgsubr
            498 -148 -620 hlineto
            return
          </CharString>
          <CharString index="118">
            9 callsubr
            hstem
            59 441 vstem
            return
          </CharString>
          <CharString index="119">
            rmoveto
            194 13 58 48 78 229 rrcurveto
            return
          </CharString>
          <CharString index="120">
            63 -49 162 -4 vhcurveto
            return
          </CharString>
          <CharString index="121">
            -54 -22 -30 -32 -44 vvcurveto
            return
          </CharString>
          <CharString index="122">
            -43 35 -30 43 -24 vhcurveto
            return
          </CharString>
          <CharString index="123">
            121 -9 -20 hstemhm
            65 144 158 149 return
          </CharString>
          <CharString index="124">
            -54 callsubr
            endchar
          </CharString>
          <CharString index="125">
            rmoveto
            -24 callgsubr
            return
          </CharString>
          <CharString index="126">
            0 197 -176 21 callgsubr
            return
          </CharString>
          <CharString index="127">
            12 -21 30 93 callgsubr
            return
          </CharString>
          <CharString index="128">
            rmoveto
            -59 -40 46 112 94 35 45 61 18 21 -4 -7 22 hvcurveto
            1 -106 1 -91 2 -69 rrcurveto
            -13 -18 -18 -7 -26 hhcurveto
            return
          </CharString>
          <CharString index="129">
            -7 117 282 121 -115 115 return
          </CharString>
          <CharString index="130">
            -157 -21 229 109 240 119 return
          </CharString>
          <CharString index="131">
            rmoveto
            4 -2 callgsubr
            return
          </CharString>
          <CharString index="132">
            39 callsubr
            hstemhm
            56 153 hintmask 10110000
            return
          </CharString>
          <CharString index="133">
            -1 callsubr
            8 -107 rlineto
            return
          </CharString>
          <CharString index="134">
            -142 -12 rlineto
            -183 vlineto
            -167 -131 -107 -188 -151 75 -88 105 55 43 27 33 32 hvcurveto
            endchar
          </CharString>
          <CharString index="135">
            25 callgsubr
            hstem
            59 132 169 132 vstem
            return
          </CharString>
          <CharString index="136">
            321 -42 130 124 239 vvcurveto
            return
          </CharString>
          <CharString index="137">
            823 -31 callgsubr
            return
          </CharString>
          <CharString index="138">
            -156 -21 683 -20 25 -20 return
          </CharString>
          <CharString index="139">
            -58 -53 -63 -80 -36 hvcurveto
            return
          </CharString>
          <CharString index="140">
            -62 59 -44 102 vhcurveto
            return
          </CharString>
          <CharString index="141">
            -8 107 -106 115 110 81 96 117 -112 115 hstemhm
            20 129 63 116 73 128 return
          </CharString>
          <CharString index="142">
            rmoveto
            224 208 9 138 -226 204 -94 -99 205 -176 -212 -176 rlineto
            endchar
          </CharString>
          <CharString index="143">
            -14 116 -84 -21 28 -21 395 97 callgsubr
            42 141 157 142 return
          </CharString>
          <CharString index="144">
            rmoveto
            50 callsubr
            52 callgsubr
            return
          </CharString>
          <CharString index="145">
            rmoveto
            94 99 -205 176 212 176 -94 99 -224 -208 -9 -138 rlineto
            endchar
          </CharString>
          <CharString index="146">
            -8 128 -103 -21 494 140 return
          </CharString>
          <CharString index="147">
            -65 callgsubr
            49 222 60 callgsubr
            hintmask 00111110
            return
          </CharString>
          <CharString index="148">
            hmoveto
            6 175 rlineto
            -131 hlineto
            -6 -175 rlineto
            return
          </CharString>
          <CharString index="149">
            148 11 74 51 59 vvcurveto
            return
          </CharString>
          <CharString index="150">
            hstem
            227 143 vstem
            return
          </CharString>
          <CharString index="151">
            306.5 103 return
          </CharString>
          <CharString index="152">
            99 215 93 return
          </CharString>
          <CharString index="153">
            26 callgsubr
            111 149 hintmask 10111000
            return
          </CharString>
          <CharString index="154">
            rmoveto
            339 hlineto
            13 112 rlineto
            -216 658 209 112 -345 hlineto
            endchar
          </CharString>
          <CharString index="155">
            hstemhm
            202 136 -134 126 -45 142 -136 137 hintmask 10010000
            109 return
          </CharString>
          <CharString index="156">
            rmoveto
            -73 22 -59 -52 -35 -93 -1 -83 rlinecurve
            166 7 -17 62 1 76 18 61 rlinecurve
            return
          </CharString>
          <CharString index="157">
            0 9 7 6 9 9 7 -6 55 callsubr
            return
          </CharString>
          <CharString index="158">
            58 callsubr
            hstem
            94 92 callsubr
            return
          </CharString>
          <CharString index="159">
            71 callsubr
            75 90 return
          </CharString>
          <CharString index="160">
            -149 -28 -56 -130 18 vhcurveto
            return
          </CharString>
          <CharString index="161">
            34 54 -72 64 hhcurveto
            return
          </CharString>
          <CharString index="162">
            0 hflex1
            return
          </CharString>
          <CharString index="163">
            -53 -158 rlineto
            -3 hlineto
            -55 158 rlineto
            -78 -339 78 196 2 hlineto
            return
          </CharString>
          <CharString index="164">
            hstem
            44 callsubr
            vstem
            451 return
          </CharString>
          <CharString index="165">
            0 122 498 -20 return
          </CharString>
          <CharString index="166">
            70 36 callgsubr
            return
          </CharString>
          <CharString index="167">
            20 callsubr
            244 122 245 -20 hstemhm
            64 147 return
          </CharString>
          <CharString index="168">
            112 658 90 callgsubr
            return
          </CharString>
          <CharString index="169">
            -9 119 272 131 return
          </CharString>
          <CharString index="170">
            488 hmoveto
            10 callsubr
            return
          </CharString>
          <CharString index="171">
            -26 callgsubr
            64 36 callgsubr
            49 140 return
          </CharString>
          <CharString index="172">
            95 hstem
            117 328 vstem
            273 return
          </CharString>
          <CharString index="173">
            93 215 97 return
          </CharString>
          <CharString index="174">
            -21 26 -21 return
          </CharString>
          <CharString index="175">
            140 114 122 185 187 -107 112 -142 return
          </CharString>
          <CharString index="176">
            31 callsubr
            hstemhm
            23 501 hintmask 10110000
            return
          </CharString>
          <CharString index="177">
            516 321 31 callgsubr
            return
          </CharString>
          <CharString index="178">
            -222 45 callsubr
            return
          </CharString>
          <CharString index="179">
            202 148 return
          </CharString>
          <CharString index="180">
            10 hlineto
            0 6 -1 3 -4 -3 -2 -2 55 callsubr
            return
          </CharString>
          <CharString index="181">
            61 callsubr
            295 136 vstem
            91 return
          </CharString>
          <CharString index="182">
            72 callgsubr
            150 122 297 115 return
          </CharString>
          <CharString index="183">
            21 -21 498 122 hstem
            72 callsubr
            vstem
            return
          </CharString>
          <CharString index="184">
            hintmask 100000000000000000000000000000001000000000000000
            return
          </CharString>
          <CharString index="185">
            hstem
            65 420 vstem
            485 return
          </CharString>
          <CharString index="186">
            -21 149 return
          </CharString>
          <CharString index="187">
            90 callsubr
            hintmask 00111110
            return
          </CharString>
          <CharString index="188">
            hhcurveto
            57 41 -51 -108 -95 -47 -43 -64 hvcurveto
            return
          </CharString>
          <CharString index="189">
            rmoveto
            22 hlineto
            42 133 rlineto
            2 -196 80 return
          </CharString>
          <CharString index="190">
            186.5 return
          </CharString>
          <CharString index="191">
            129 rlineto
            -142 hlineto
            -2 -129 rlineto
            return
          </CharString>
          <CharString index="192">
            97 78 -81 -151 -153 -72 -79 -103 return
          </CharString>
          <CharString index="193">
            0 106 489 58 callgsubr
            return
          </CharString>
          <CharString index="194">
            97 132 -20 106 92 return
          </CharString>
          <CharString index="195">
            hstemhm
            77 147 return
          </CharString>
          <CharString index="196">
            rlineto
            145 return
          </CharString>
          <CharString index="197">
            -20 89 callgsubr
            199 132 return
          </CharString>
          <CharString index="198">
            435 425 rmoveto
            67 callgsubr
            return
          </CharString>
          <CharString index="199">
            148 vstem
            return
          </CharString>
          <CharString index="200">
            -20 hstemhm
            177 140 hintmask 11011000
            return
          </CharString>
          <CharString index="201">
            hstem
            110 327 vstem
            204 return
          </CharString>
          <CharString index="202">
            83 -40 50 -55 -60 -49 -56 -87 return
          </CharString>
          <CharString index="203">
            hstem
            317 141 vstem
            168 return
          </CharString>
          <CharString index="204">
            -272 rmoveto
            150 vlineto
            167 return
          </CharString>
          <CharString index="205">
            -222 97 156 -21 83 92 return
          </CharString>
          <CharString index="206">
            13 22 24 8 28 hhcurveto
            endchar
          </CharString>
          <CharString index="207">
            131 413 rmoveto
            return
          </CharString>
          <CharString index="208">
            hstem
            60 435 vstem
            return
          </CharString>
          <CharString index="209">
            rlineto
            -138 hlineto
            return
          </CharString>
        <CharString name=".notdef">
          -200 50 900 50 hstem
          5 54 432 54 vstem
          5 -200 rmoveto
          540 1000 -540 hlineto
          77 -50 rmoveto
          386 hlineto
          -193 -390 rlineto
          216 316 rmoveto
          -752 vlineto
          -186 376 rlineto
          -246 -376 rmoveto
          752 vlineto
          186 -376 rlineto
          30 -60 rmoveto
          193 -390 rlineto
          -386 hlineto
          endchar
        </CharString>
        <CharString name="A">
          -12 callsubr
          hintmask 10011100
          385 -5 -98 callsubr
        </CharString>
        <CharString name="AE">
          56 callgsubr
          249 499 -45 callsubr
        </CharString>
        <CharString name="AEacute">
          56 callgsubr
          190 -89 callgsubr
          59 -237 -45 callsubr
        </CharString>
        <CharString name="Aacute">
          -12 callsubr
          hintmask 00111100
          141 -89 callgsubr
          hintmask 10011100
          244 -741 -98 callsubr
        </CharString>
        <CharString name="Abreve">
          -65 callgsubr
          58 112 60 callgsubr
          hintmask 00111110
          277 -78 callsubr
          hintmask 10011110
          108 -683 -97 callgsubr
        </CharString>
        <CharString name="Acircumflex">
          -12 callsubr
          hintmask 00111100
          381 -52 callsubr
          hintmask 10011100
          126 -772 -98 callsubr
        </CharString>
        <CharString name="Adieresis">
          -65 callgsubr
          59 callsubr
          90.5 -40 callsubr
          hintmask 00111111
          457 -47 callgsubr
          hintmask 10011111
          296 -695 rmoveto
          hintmask 00111111
          -79 callgsubr
          hintmask 01011111
          -94 callsubr
          hintmask 10011111
          -11 callgsubr
          hintmask 00111111
          -93 callgsubr
        </CharString>
        <CharString name="Agrave">
          -12 callsubr
          hintmask 00111100
          398 -51 callgsubr
          hintmask 10011100
          25 -678 -98 callsubr
        </CharString>
        <CharString name="Amacron">
          -65 callgsubr
          82 121 60 callgsubr
          hintmask 00111110
          453 30 callsubr
          hintmask 10011110
          -68 -707 -97 callgsubr
        </CharString>
        <CharString name="Aogonek">
          -228 110 139 -21 22 -21 25 -33 callgsubr
          hstemhm
          287 135 hintmask 10011110
          512 -228 rmoveto
          -7 callgsubr
          -43 callgsubr
          rrcurveto
          -203 hlineto
          hintmask 01001110
          -94 callsubr
          hintmask 00101110
          10 -52 11 -51 10 -50 rrcurveto
          -67 -42 -30 -39 -38 vvcurveto
          hintmask 10011110
          17 callgsubr
          -242 730 rmoveto
          9 hlineto
          hintmask 00011110
          -49 callgsubr
          hintmask 10011110
          -35 callgsubr
        </CharString>
        <CharString name="Aring">
          40 callsubr
          272 891 -69 callsubr
        </CharString>
        <CharString name="Aringacute">
          40 callsubr
          141 979 -107 callgsubr
          131 -88 -69 callsubr
        </CharString>
        <CharString name="Atilde">
          -65 callgsubr
          63 102 callgsubr
          60 callgsubr
          hintmask 00111101
          349 683 -55 callgsubr
          hintmask 00111011
          -25 callgsubr
          hintmask 00111101
          54 callsubr
          hintmask 10011101
          36 -688 rmoveto
          hintmask 00111101
          -79 callgsubr
          hintmask 01011101
          -94 callsubr
          hintmask 10011101
          -11 callgsubr
          hintmask 00111101
          -93 callgsubr
        </CharString>
        <CharString name="B">
          -9 114 -84 -21 259 98 154 118 -9 -20 hstemhm
          74 144 133 141 -125 144 hintmask 10101101
          511 189 rmoveto
          72 -33 45 -71 26 vhcurveto
          hintmask 01101110
          53 32 32 47 62 vvcurveto
          146 -164 28 -254 -27 vhcurveto
          -620 vlineto
          hintmask 10101101
          252 -31 185 51 169 vvcurveto
          hintmask 10110110
          -293 322 rmoveto
          88 10 45 -25 -59 vvcurveto
          -61 -30 -23 -103 4 vhcurveto
          hintmask 10101101
          -248 vmoveto
          150 vlineto
          97 7 52 -13 -68 vvcurveto
          -69 -42 -22 -107 15 vhcurveto
          endchar
        </CharString>
        <CharString name="C">
          25 callsubr
          489 120 -54 callgsubr
        </CharString>
        <CharString name="Cacute">
          25 callsubr
          175 -89 callgsubr
          314 -616 -54 callgsubr
        </CharString>
        <CharString name="Ccaron">
          25 callsubr
          320 -51 callsubr
          179 -548 -54 callgsubr
        </CharString>
        <CharString name="Ccedilla">
          -4 124 370 140 hstem
          56 153 81 128 vstem
          418 -116 rmoveto
          36 -27 39 -78 38 vhcurveto
          47 -6 54 -1 63 6 12 124 rcurveline
          -72 callgsubr
          -129 45 -108 129 -48 vhcurveto
          -23 -53 rlineto
          41 callgsubr
          endchar
        </CharString>
        <CharString name="Cdotaccent">
          39 callsubr
          60 36 callgsubr
          56 153 30 148 hintmask 10111100
          385 -18 callgsubr
          252 -570 rmoveto
          hintmask 10111000
          -72 callgsubr
          hintmask 01111000
          28 callgsubr
        </CharString>
        <CharString name="D">
          47 callgsubr
          516 321 -25 callsubr
        </CharString>
        <CharString name="Dcaron">
          47 callgsubr
          273 673 -99 callsubr
          253 -352 -25 callsubr
        </CharString>
        <CharString name="Dcroat">
          -64 callgsubr
        </CharString>
        <CharString name="E">
          -23 callgsubr
          493 121 -81 callsubr
        </CharString>
        <CharString name="Eacute">
          -23 callgsubr
          151 -89 callgsubr
          342 -615 -81 callsubr
        </CharString>
        <CharString name="Ebreve">
          -46 callsubr
          58 90 callgsubr
          88 46 callgsubr
          287 -78 callsubr
          206 -557 -81 callsubr
        </CharString>
        <CharString name="Ecaron">
          -23 callgsubr
          296 -51 callsubr
          207 -547 -81 callsubr
        </CharString>
        <CharString name="Ecircumflex">
          -23 callgsubr
          392 -52 callsubr
          223 -646 -81 callsubr
        </CharString>
        <CharString name="Edieresis">
          -46 callsubr
          59 callsubr
          88 147 -134.5 -40 callsubr
          hintmask 11111010
          467 690 rmoveto
          4 -96 callgsubr
          hintmask 11110110
          -84 callgsubr
          394 -569 rmoveto
          hintmask 11111010
          -88 callsubr
        </CharString>
        <CharString name="Edotaccent">
          -46 callsubr
          59 callsubr
          88 147 -20 148 hintmask 11110100
          361 -18 callgsubr
          280 -569 rmoveto
          hintmask 11111000
          -88 callsubr
        </CharString>
        <CharString name="Egrave">
          -23 callgsubr
          408 -51 callgsubr
          123 -552 -81 callsubr
        </CharString>
        <CharString name="Emacron">
          -46 callsubr
          82 121 hstem
          88 46 callgsubr
          463 30 callsubr
          30 -581 -81 callsubr
        </CharString>
        <CharString name="Eogonek">
          103 callgsubr
          123 -44 callsubr
          hstemhm
          88 147 0 135 hintmask 11111000
          472 -123 rmoveto
          hintmask 11110100
          1 callgsubr
          11 121 rlineto
          hintmask 11111000
          -84 callsubr
          251 hlineto
          hintmask 11110100
          -72 -43 -32 -41 -39 vvcurveto
          17 callgsubr
          endchar
        </CharString>
        <CharString name="Eth">
          -64 callgsubr
        </CharString>
        <CharString name="Euro">
          -1 -21 194 98 -84 87 58 87 hstemhm
          106 130 hintmask 10111000
          487 93 rmoveto
          -139 20 -62 26 -28 47 rrcurveto
          174 hlineto
          4 87 rlineto
          -199 hlineto
          -1 13 0 14 15 6 0 5 5 vvcurveto
          204 hlineto
          5 87 rlineto
          -197 hlineto
          22 53 57 19 151 20 -20 135 rcurveline
          -220 -39 -87 -77 -30 -100 rrcurveto
          -71 -98 56 hlineto
          hintmask 11011000
          -6 0 -7 -6 vvcurveto
          -14 0 -14 1 -14 vhcurveto
          -56 -98 72 hlineto
          34 -110 93 -66 220 -18 rrcurveto
          endchar
        </CharString>
        <CharString name="F">
          21 -21 241 113 144 122 hstem
          92 92 callsubr
          456 241 rmoveto
          113 -216 144 256 122 -404 -620 148 241 vlineto
          endchar
        </CharString>
        <CharString name="G">
          62 callgsubr
          hstem
          44 150 165 133 vstem
          493 9 -87 callsubr
          endchar
        </CharString>
        <CharString name="Gbreve">
          62 callgsubr
          48 90 callgsubr
          44 150 165 133 vstem
          298 -78 callsubr
          195 -669 -87 callsubr
          endchar
        </CharString>
        <CharString name="Gcommaaccent">
          62 callgsubr
          hstemhm
          44 150 30 154 -19 133 hintmask 11101000
          493 9 -87 callsubr
          hintmask 11110000
          -283 -287 -96 callsubr
        </CharString>
        <CharString name="Gdotaccent">
          62 callgsubr
          60 36 callgsubr
          44 150 32 148 -15 133 hintmask 11111000
          372 -18 callgsubr
          hintmask 11110100
          269 -681 -87 callsubr
          endchar
        </CharString>
        <CharString name="H">
          21 -21 256 112 252 -20 hstem
          58 150 134 151 vstem
          342 hmoveto
          151 620 -151 -252 -134 252 -150 -620 150 256 134 hlineto
          endchar
        </CharString>
        <CharString name="Hbar">
          21 -21 236 112 80 98 -93 88 -88 187 hstemhm
          58 150 134 151 hintmask 11010110
          342 348 rmoveto
          -134 85 134 hlineto
          -433 vmoveto
          151 hlineto
          hintmask 11100110
          428 55 98 -55 vlineto
          hintmask 11001110
          94 -151 vlineto
          hintmask 11010110
          -99 -134 vlineto
          hintmask 11001110
          99 -150 vlineto
          hintmask 11100110
          -94 -55 -98 55 -428 150 236 134 vlineto
          endchar
        </CharString>
        <CharString name="I">
          8 callsubr
          350 507 -85 callgsubr
        </CharString>
        <CharString name="Iacute">
          8 callsubr
          148 -89 callgsubr
          202 -229 -85 callgsubr
        </CharString>
        <CharString name="Ibreve">
          6 callsubr
          58 112 44 callgsubr
          284 -78 callsubr
          66 -171 -85 callgsubr
        </CharString>
        <CharString name="Icircumflex">
          8 callsubr
          388 -52 callsubr
          84 -260 -85 callgsubr
        </CharString>
        <CharString name="Idieresis">
          6 callsubr
          59 callsubr
          97.5 144 -38.5 147 -27.5 -3 callsubr
          hintmask 11110100
          464 -47 callgsubr
          hintmask 11101000
          254 -183 rmoveto
          hintmask 11100100
          -16 callsubr
          hlineto
          hintmask 11101000
          -77 callsubr
        </CharString>
        <CharString name="Idotaccent">
          6 callsubr
          59 callsubr
          203 147 -138 148 hintmask 11101000
          358 -18 callgsubr
          hintmask 11110000
          140 -183 -85 callgsubr
        </CharString>
        <CharString name="Igrave">
          8 callsubr
          404 -51 callgsubr
          -16 -166 -85 callgsubr
        </CharString>
        <CharString name="Imacron">
          6 callsubr
          82 121 44 callgsubr
          460 30 callsubr
          -110 -195 -85 callgsubr
        </CharString>
        <CharString name="Iogonek">
          -228 110 118 113 394 113 hstemhm
          147 135 -79 147 hintmask 11101000
          384 -118 rmoveto
          hintmask 11110000
          20 callgsubr
          20 14 25 41 32 vhcurveto
          141 hlineto
          10 113 rlineto
          hintmask 11101000
          -138 394 -16 callsubr
          132 -394 hlineto
          hintmask 11110000
          -132 -113 149 hlineto
          -50 -41 -23 -38 -35 vvcurveto
          -61 13 callsubr
          endchar
        </CharString>
        <CharString name="J">
          -9 123 -123 126 387 116 hstemhm
          301 148 hintmask 10110000
          107 620 rmoveto
          -116 194 -286 vlineto
          hintmask 01110000
          -96 -10 -16 -220 11 vhcurveto
          hintmask 10110000
          -126 vlineto
          282 -7 96 68 168 vvcurveto
          400 vlineto
          endchar
        </CharString>
        <CharString name="K">
          60 callsubr
          -9 callsubr
          endchar
        </CharString>
        <CharString name="Kcommaaccent">
          60 callsubr
          -4 154 -9 callsubr
          hintmask 00111010
          -53 -531 -96 callsubr
        </CharString>
        <CharString name="L">
          51 callsubr
          63 callsubr
          endchar
        </CharString>
        <CharString name="Lacute">
          51 callsubr
          158 -89 callgsubr
          330 -736 rmoveto
          10 callsubr
          endchar
        </CharString>
        <CharString name="Lcaron">
          58 callsubr
          109 -20 hstem
          68 callgsubr
          103 69 callgsubr
          336 467 -46 callgsubr
          152 -467 rmoveto
          10 callsubr
          endchar
        </CharString>
        <CharString name="Lcommaaccent">
          58 callsubr
          hstemhm
          68 callgsubr
          -22 154 hintmask 11100000
          63 callsubr
          hintmask 11010000
          112 -56 callsubr
        </CharString>
        <CharString name="Ldot">
          0 122 133 148 217 -20 hstem
          68 callgsubr
          134.5 131.5 vstem
          63 callsubr
          410 255 rmoveto
          8 148 rlineto
          -131 hlineto
          -9 -148 rlineto
          endchar
        </CharString>
        <CharString name="Lslash">
          51 callsubr
          488 hmoveto
          45 callgsubr
          213 hlineto
          112 56 -21 94 -91 -45 rlineto
          180 -148 -254 vlineto
          -72 -36 21 -94 51 25 rlineto
          -261 vlineto
          endchar
        </CharString>
        <CharString name="M">
          21 -21 138 158 324 -20 hstem
          52 126 189 131 vstem
          369 620 rmoveto
          -91 -324 rlineto
          -4 hlineto
          -92 324 rlineto
          -130 -620 130 hlineto
          -8 346 rlineto
          4 hlineto
          59 -208 rlineto
          71 hlineto
          59 208 rlineto
          4 hlineto
          -8 -346 rlineto
          135 620 hlineto
          endchar
        </CharString>
        <CharString name="N">
          28 callsubr
          373 hmoveto
          -74 callgsubr
          endchar
        </CharString>
        <CharString name="NUL">
          -107 endchar
        </CharString>
        <CharString name="Nacute">
          28 callsubr
          146 -89 callgsubr
          227 -736 rmoveto
          -74 callgsubr
          endchar
        </CharString>
        <CharString name="Ncaron">
          28 callsubr
          291 -51 callsubr
          92 -668 rmoveto
          -74 callgsubr
          endchar
        </CharString>
        <CharString name="Ncommaaccent">
          25 callgsubr
          hstemhm
          59 132 17 154 -2 132 hintmask 11101000
          373 hmoveto
          -74 callgsubr
          hintmask 11110000
          1 -614 -96 callsubr
        </CharString>
        <CharString name="Ntilde">
          25 callgsubr
          83 102 callgsubr
          hstemhm
          59 132 169 132 hintmask 11101100
          354 683 -13 callsubr
          19 -683 rmoveto
          -74 callgsubr
          endchar
        </CharString>
        <CharString name="O">
          -28 callsubr
          258 -16 -105 callsubr
        </CharString>
        <CharString name="OE">
          -46 callsubr
          hstem
          24 145 85 119 vstem
          169 319 rmoveto
          140 24 40 61 -1 vhcurveto
          -377 vlineto
          -63 -2 -22 58 142 vvcurveto
          353 -198 rmoveto
          -149 137 112 106 -112 135 144 121 -234 hlineto
          -168 -91 -114 -207 -219 85 -80 173 hvcurveto
          233 hlineto
          endchar
        </CharString>
        <CharString name="Oacute">
          -28 callsubr
          148 743 -107 callgsubr
          110 -759 -105 callsubr
        </CharString>
        <CharString name="Obreve">
          1 callsubr
          49 112 -6 callsubr
          284 685 -103 callgsubr
          -26 -701 -105 callsubr
        </CharString>
        <CharString name="Ocircumflex">
          -28 callsubr
          389 682 -98 callgsubr
          -9 -790 -105 callsubr
        </CharString>
        <CharString name="Odieresis">
          1 callsubr
          61 36 callgsubr
          35 152 -89.5 -40 callsubr
          -103 152 hintmask 11101100
          464 697 27 callgsubr
          162 -713 -105 callsubr
        </CharString>
        <CharString name="Ograve">
          -28 callsubr
          405 741 -99 callgsubr
          -109 -696 -105 callsubr
        </CharString>
        <CharString name="Ohungarumlaut">
          -28 callsubr
          106 729 -87 callgsubr
          -61 -743 -105 callsubr
        </CharString>
        <CharString name="Omacron">
          1 callsubr
          73 121 -6 callsubr
          460 830 -31 callgsubr
          -202 -725 -105 callsubr
        </CharString>
        <CharString name="Omega">
          0 113 393 129 hstem
          59 136 160 138 vstem
          247 7 rmoveto
          -35 141 -17 113 82 vvcurveto
          107 28 56 53 51 28 -57 -110 -82 -16 -112 -34 -138 vhcurveto
          2 -7 rlineto
          200 113 -66 hlineto
          36 95 16 87 79 vvcurveto
          152 1 -75 109 -138 hhcurveto
          -142 -80 -109 -156 -77 17 -87 34 -93 hvcurveto
          -66 -113 200 hlineto
          endchar
        </CharString>
        <CharString name="Oslash">
          34 callgsubr
          184 321 -76 callgsubr
        </CharString>
        <CharString name="Oslashacute">
          34 callgsubr
          143 744 -107 callgsubr
          41 -423 -76 callgsubr
        </CharString>
        <CharString name="Otilde">
          1 callsubr
          54 102 callgsubr
          hstemhm
          2 callsubr
          hintmask 11101100
          356 690 -13 callsubr
          -98 -706 -105 callsubr
        </CharString>
        <CharString name="P">
          21 -21 507 123 -10 -20 hstemhm
          75 146 154 143 hintmask 11011000
          221 hmoveto
          171 vlineto
          172 25 125 74 153 vvcurveto
          hintmask 10111000
          163 -141 71 -302 -37 vhcurveto
          -620 vlineto
          hintmask 11011000
          300 393 rmoveto
          -92 -51 -26 -103 15 vhcurveto
          217 vlineto
          102 9 52 -38 -85 vvcurveto
          endchar
        </CharString>
        <CharString name="Q">
          8 -21 41 -21 509 120 hstemhm
          2 callsubr
          hintmask 01111000
          440 -155 rmoveto
          40 118 -114 36 rlineto
          8 vlineto
          93 45 56 111 169 vvcurveto
          -65 callsubr
          vhcurveto
          hintmask 10111000
          -178 64 -104 119 -19 vhcurveto
          -23 -67 rlineto
          75 596 rmoveto
          64 29 -71 -146 -135 -19 -60 -64 -64 -29 71 146 135 19 60 64 hvcurveto
          endchar
        </CharString>
        <CharString name="R">
          -8 callgsubr
          hintmask 10010110
          383 -9 -73 callsubr
        </CharString>
        <CharString name="R_p">
          72 callgsubr
          181 -21 25 -21 23 -21 23 -21 615 73 callgsubr
          hstemhm
          17 102 184 97 hintmask 0110000111000000
          175 -4 rmoveto
          hintmask 0100101011000000
          103 6 -54 272 rlineto
          32 44 23 57 67 92 callgsubr
          hintmask 0101000111000000
          -619 106 vlineto
          -8 223 22 1 rlineto
          263 -388 rmoveto
          hintmask 1000010111000000
          168 vlineto
          72 -4 66 68 189 vvcurveto
          191 -51 69 -116 -54 vhcurveto
          -3 14 rlineto
          -65 -653 hlineto
          endchar
        </CharString>
        <CharString name="Racute">
          -8 callgsubr
          hintmask 00110110
          126 741 -107 callgsubr
          hintmask 10010110
          257 -750 -73 callsubr
        </CharString>
        <CharString name="Rcaron">
          -8 callgsubr
          hintmask 00110110
          271 673 -99 callsubr
          hintmask 10010110
          122 -682 -73 callsubr
        </CharString>
        <CharString name="Rcommaaccent">
          -22 callgsubr
          9 154 -27 144 hintmask 1001011000000000
          383 -9 rmoveto
          hintmask 0011011010000000
          -34 callgsubr
          hintmask 0101101010000000
          -53 callgsubr
          hintmask 0011011100000000
          -5 -580 -96 callsubr
        </CharString>
        <CharString name="S">
          -8 callsubr
          hintmask 01011100
          75 122 -71 callsubr
        </CharString>
        <CharString name="Sacute">
          -8 callsubr
          hintmask 10011100
          152 742 -107 callgsubr
          hintmask 01011100
          -77 -620 -71 callsubr
        </CharString>
        <CharString name="Scaron">
          -8 callsubr
          hintmask 10011100
          297 674 -99 callsubr
          hintmask 01011100
          -212 -552 -71 callsubr
        </CharString>
        <CharString name="Scedilla">
          -8 126 -126 130 -98 -21 493 13 callgsubr
          27 128 -40 154 hintmask 10001101
          157 -239 rmoveto
          hintmask 00101110
          42 callsubr
          38 -30 43 -91 40 vhcurveto
          hintmask 00110101
          172 29 63 80 79 -17 callgsubr
          hintmask 01001101
          -42 callsubr
          hintmask 10001101
          -130 vlineto
          hintmask 10001110
          39 -1 35 1 33 57 callgsubr
        </CharString>
        <CharString name="Scommaaccent">
          -22 callsubr
          -30 154 -9 154 hintmask 01010010
          75 122 rmoveto
          hintmask 10101010
          -37 callgsubr
          hintmask 01011010
          -39 callsubr
          hintmask 01010010
          -44 -69 -21 -195 13 vhcurveto
          hintmask 10010100
          105 -399 -96 callsubr
        </CharString>
        <CharString name="T">
          76 callsubr
          350 498 7 callgsubr
          endchar
        </CharString>
        <CharString name="Tcaron">
          76 callsubr
          283 -51 callsubr
          77 -170 7 callgsubr
          endchar
        </CharString>
        <CharString name="Tcommaaccent">
          21 -21 498 122 hstemhm
          200 154 -152 148 hintmask 11010000
          350 498 7 callgsubr
          -164 -269 rmoveto
          hintmask 11100000
          -62 callsubr
          hintmask 11010000
          -76 callsubr
        </CharString>
        <CharString name="Thorn">
          0 209 204 121 86 -20 hstem
          75 147 153 144 vstem
          222 hmoveto
          93 vlineto
          172 24 125 73 147 vvcurveto
          132 -98 69 -199 -4 vhcurveto
          86 -147 -620 vlineto
          300 307 rmoveto
          -84 -51 -25 -102 15 vhcurveto
          200 vlineto
          102 8 51 -35 -79 vvcurveto
          endchar
        </CharString>
        <CharString name="U">
          3 callsubr
          270 -16 -101 callgsubr
        </CharString>
        <CharString name="Uacute">
          3 callsubr
          144 -89 callgsubr
          126 -752 -101 callgsubr
        </CharString>
        <CharString name="Ubreve">
          15 callgsubr
          78 112 -19 callgsubr
          280 -78 callsubr
          -10 -694 -101 callgsubr
        </CharString>
        <CharString name="Ucircumflex">
          3 callsubr
          384 -52 callsubr
          8 -783 -101 callgsubr
        </CharString>
        <CharString name="Udieresis">
          15 callgsubr
          90 36 callgsubr
          56 147 -109.5 -40 callsubr
          -114 147 hintmask 11101100
          460 690 27 callgsubr
          178 -706 -101 callgsubr
        </CharString>
        <CharString name="Ugrave">
          3 callsubr
          400 -51 callgsubr
          -92 -689 -101 callgsubr
        </CharString>
        <CharString name="Uhungarumlaut">
          15 callgsubr
          120 -20 -19 callgsubr
          101 722 -87 callgsubr
          -44 -736 -101 callgsubr
        </CharString>
        <CharString name="Umacron">
          15 callgsubr
          102 121 -19 callgsubr
          456 30 callsubr
          -186 -718 -101 callgsubr
        </CharString>
        <CharString name="Uogonek">
          103 callgsubr
          130 -21 634 -20 hstemhm
          56 147 -53 135 63 147 hintmask 11101100
          375 -233 rmoveto
          12 110 rlineto
          -75 5 -27 16 24 vvcurveto
          32 44 12 69 53 vhcurveto
          64 49 33 60 98 vvcurveto
          -53 callsubr
          vhcurveto
          hintmask 11110100
          -47 -29 31 74 hvcurveto
          405 -147 -407 vlineto
          -132 65 -80 112 -15 vhcurveto
          hintmask 11101100
          -61 -37 -22 -35 -37 vvcurveto
          17 callgsubr
          endchar
        </CharString>
        <CharString name="Uring">
          15 callgsubr
          69 222 -19 callgsubr
          274 891 -63 callsubr
          -4 -907 -101 callgsubr
        </CharString>
        <CharString name="V">
          0 133 487 -20 25 -20 hstemhm
          19 512 hintmask 10110000
          377 hmoveto
          hintmask 11010000
          58 206 50 208 46 206 rrcurveto
          -147 hlineto
          -31 -159 -34 -169 -37 -159 rrcurveto
          -9 hlineto
          hintmask 10110000
          -38 160 -35 172 -31 160 -150 -10 rcurveline
          46 -206 51 -203 58 -206 rrcurveto
          endchar
        </CharString>
        <CharString name="W">
          -42 callgsubr
          342 hmoveto
          -92 callsubr
        </CharString>
        <CharString name="Wacute">
          -42 callgsubr
          146 -89 callgsubr
          196 -736 rmoveto
          -92 callsubr
        </CharString>
        <CharString name="Wcircumflex">
          -42 callgsubr
          387 -52 callsubr
          77 -767 rmoveto
          -92 callsubr
        </CharString>
        <CharString name="Wdieresis">
          19 callsubr
          90 36 callgsubr
          26 148.5 -79 -40 callsubr
          -80 141 hintmask 01110110
          462 -47 callgsubr
          248 -690 rmoveto
          hintmask 01110101
          -27 callgsubr
          hintmask 10111001
          -90 callgsubr
        </CharString>
        <CharString name="Wgrave">
          -42 callgsubr
          403 -51 callgsubr
          -23 -673 rmoveto
          -92 callsubr
        </CharString>
        <CharString name="X">
          18 -21 24 -21 24 -21 617 -20 23 -20 hstemhm
          17 519 hintmask 10001100
          372 -3 rmoveto
          hintmask 00110100
          163 6 -167 305 168 312 rlineto
          -157 hlineto
          -96 -206 rlineto
          hintmask 01001100
          -104 209 -162 -6 167 -307 -166 -310 rlineto
          156 hlineto
          96 203 rlineto
          endchar
        </CharString>
        <CharString name="Y">
          4 callgsubr
          350 hmoveto
          -68 callsubr
        </CharString>
        <CharString name="Yacute">
          4 callgsubr
          145 739 -107 callgsubr
          205 -739 rmoveto
          -68 callsubr
        </CharString>
        <CharString name="Ycircumflex">
          4 callgsubr
          386 678 -98 callgsubr
          86 -770 rmoveto
          -68 callsubr
        </CharString>
        <CharString name="Ydieresis">
          25 callgsubr
          23 -20 90 36 callgsubr
          94.5 144 -36.5 148 -30.5 -3 callsubr
          hintmask 10111010
          461 693 -100 callgsubr
          hintmask 11010100
          257 -693 rmoveto
          207 vlineto
          -10 callsubr
          hintmask 10110100
          -28 callgsubr
        </CharString>
        <CharString name="Ygrave">
          4 callgsubr
          402 737 -99 callgsubr
          -14 -676 rmoveto
          -68 callsubr
        </CharString>
        <CharString name="Z">
          11 callsubr
          490 hmoveto
          -58 callsubr
        </CharString>
        <CharString name="Zacute">
          11 callsubr
          156 -89 callgsubr
          334 -736 rmoveto
          -58 callsubr
        </CharString>
        <CharString name="Zcaron">
          11 callsubr
          301 -51 callsubr
          199 -668 rmoveto
          -58 callsubr
        </CharString>
        <CharString name="Zdotaccent">
          9 callsubr
          70 145 hstem
          220 92 callsubr
          366 -18 callgsubr
          272 -690 rmoveto
          -58 callsubr
        </CharString>
        <CharString name="a">
          -60 callgsubr
          -15 callgsubr
          hintmask 10011110
          259 94 -93 callsubr
          hintmask 01011110
          104 -98 rmoveto
          hintmask 00111110
          -102 callgsubr
          hintmask 10011110
          -55 callsubr
        </CharString>
        <CharString name="aacute">
          -60 callgsubr
          186 -20 -16 callgsubr
          137 632 -107 callgsubr
          hintmask 10011111
          122 -538 -106 callgsubr
        </CharString>
        <CharString name="abreve">
          -60 callgsubr
          57 112 -16 callgsubr
          273 574 -103 callgsubr
          hintmask 10011111
          -14 -480 -106 callgsubr
        </CharString>
        <CharString name="acircumflex">
          -60 callgsubr
          120 -20 -16 callgsubr
          377 571 -98 callgsubr
          hintmask 10011111
          4 -569 -106 callgsubr
        </CharString>
        <CharString name="acute">
          560 238 hstem
          125 318 vstem
          125 -66 callgsubr
          endchar
        </CharString>
        <CharString name="adieresis">
          -60 callgsubr
          69 145 55 callgsubr
          -105.5 -40 callsubr
          -111 139 hintmask 0011110110000000
          453 586 -100 callgsubr
          hintmask 1001111001000000
          174 -492 -93 callsubr
          hintmask 0101110101000000
          104 -98 rmoveto
          hintmask 0011111001000000
          -102 callgsubr
          hintmask 1001111010000000
          -55 callsubr
        </CharString>
        <CharString name="ae">
          34 callsubr
          hintmask 10101111
          368 400 -80 callgsubr
        </CharString>
        <CharString name="aeacute">
          34 callsubr
          hintmask 01110111
          145 623 -107 callgsubr
          hintmask 10101111
          223 -223 -80 callgsubr
        </CharString>
        <CharString name="agrave">
          -60 callgsubr
          113 -20 -16 callgsubr
          394 630 -99 callgsubr
          hintmask 10011111
          -97 -475 -106 callgsubr
        </CharString>
        <CharString name="amacron">
          -60 callgsubr
          81 121 -16 callgsubr
          449 719 -31 callgsubr
          hintmask 10011111
          -190 -504 -106 callgsubr
        </CharString>
        <CharString name="ampersand">
          -14 114 406 128 hstemhm
          22 134 -53 144 hintmask 11100000
          536 72 rmoveto
          -37 49 -33 43 -30 37 29 54 30 70 19 68 -118 14 rcurveline
          -7 -35 -11 -43 -13 -40 rrcurveto
          hintmask 11010000
          -79 94 -39 42 30 vvcurveto
          40 27 16 120 -5 vhcurveto
          -9 128 rlineto
          -215 4 -67 -92 -92 vvcurveto
          -39 18 -36 32 -47 vhcurveto
          hintmask 11100000
          -85 -53 -46 -58 -84 vvcurveto
          -87 53 -64 109 63 61 27 62 46 vhcurveto
          21 -27 21 -30 23 -32 rrcurveto
          -203 114 rmoveto
          -40 -20 30 38 35 16 32 33 30 hvcurveto
          26 -32 30 -37 34 -43 rrcurveto
          -36 -24 -25 -17 -30 hhcurveto
          endchar
        </CharString>
        <CharString name="aogonek">
          -230 110 107 107 -70 -21 27 -21 202 87 100 119 55 callgsubr
          55 135 -38 139 hintmask 1010111100000000
          472 -230 rmoveto
          -7 callgsubr
          hintmask 0100111010000000
          -102 callsubr
          -82 61 -50 89 59 53 35 44 38 vhcurveto
          hintmask 0001111010000000
          10 -57 rlineto
          hintmask 0001111100000000
          -79 -45 -35 -43 -41 vvcurveto
          hintmask 1010111100000000
          17 callgsubr
          hintmask 0100111010000000
          -213 324 rmoveto
          -42 -25 21 38 -32 callsubr
          -30 0 -26 1 -23 rrcurveto
          -23 -25 -34 -12 -28 hhcurveto
          endchar
        </CharString>
        <CharString name="approxequal">
          89 121 -37 120 25 120 -37 121 -4 -20 hstemhm
          39 464 hintmask 01101100
          357 318 rmoveto
          68 39 56 109 39 hvcurveto
          -83 35 rlineto
          -49 -23 -17 -31 -19 hhcurveto
          hintmask 01010100
          -36 -49 84 -78 hhcurveto
          -71 -49 -63 -111 -39 hvcurveto
          81 -35 rlineto
          54 25 20 34 21 hhcurveto
          hintmask 01101100
          39 53 -83 79 hhcurveto
          hintmask 10001100
          -229 vmoveto
          68 39 57 109 39 hvcurveto
          -81 35 rlineto
          -49 -24 -17 -31 -20 hhcurveto
          hintmask 01001100
          -36 -49 83 -77 hhcurveto
          -72 -49 -63 -110 -39 hvcurveto
          83 -34 rlineto
          53 25 19 34 21 hhcurveto
          hintmask 10001100
          38 53 -84 79 hhcurveto
          endchar
        </CharString>
        <CharString name="aring">
          -60 callgsubr
          48 222 -16 callgsubr
          268 787 -68 callgsubr
        </CharString>
        <CharString name="aringacute">
          -60 callgsubr
          48 222 -16 callgsubr
          137 877 -107 callgsubr
          131 -90 -68 callgsubr
        </CharString>
        <CharString name="asciicircum">
          510 -20 hstem
          43 472 vstem
          411 137 rmoveto
          104 72 -229 301 -24 -3 -219 -299 94 -71 134 192 rlineto
          endchar
        </CharString>
        <CharString name="asciitilde">
          182 129 -12 129 hstemhm
          23 504 hintmask 10100000
          371 182 rmoveto
          71 47 79 128 38 hvcurveto
          -88 34 rlineto
          -68 -25 -19 -44 -19 hhcurveto
          hintmask 01100000
          -37 -78 117 -78 hhcurveto
          -70 -54 -84 -123 -36 hvcurveto
          88 -34 rlineto
          68 23 20 44 20 hhcurveto
          hintmask 10100000
          37 82 -117 78 hhcurveto
          endchar
        </CharString>
        <CharString name="asterisk">
          501 -20 hstem
          31 495 vstem
          360 213 rmoveto
          82 50 -53 137 137 59 -22 92 -147 -10 -12 149 -97 7 -37 -144 -142 37 -38 -89 125 -82 -77 -123 72 -64 115 93 rlineto
          endchar
        </CharString>
        <CharString name="asterisk.alt">
          706 -20 hstem
          222 67.5 vstem
          328 529 rmoveto
          56 152 -122 25 -2 -163 rlineto
          -27 -7 rmoveto
          -103 124 -82 -93 139 -85 rlineto
          183 -40 rmoveto
          159 30 -39 117 -144 -79 rlineto
          -166 -52 rmoveto
          -159 -30 39 -117 144 79 rlineto
          113 -26 rmoveto
          104 -124 82 93 -139 85 rlineto
          -142 -47 rmoveto
          -57 -152 124 -25 1 163 rlineto
          endchar
        </CharString>
        <CharString name="at">
          -157 110 106 107 409 90 callgsubr
          24 117 54 125 69 121 vstem
          457 -151 rmoveto
          -1 109 rlineto
          -260 -30 -55 111 220 vvcurveto
          223 90 93 86 45 20 -30 -63 5 vhcurveto
          -106 -10 -86 -60 -168 vvcurveto
          -110 -1 48 -75 65 hhcurveto
          36 26 15 34 26 hvcurveto
          5 -45 116 13 rlineto
          -2 74 -4 88 219 vvcurveto
          150 -55 80 -124 -177 -130 -175 -271 -262 102 -172 331 42 vhcurveto
          -100 317 rmoveto
          -26 -11 32 69 68 8 40 61 -11 hvcurveto
          -183 vlineto
          -10 -10 -10 -5 -12 hhcurveto
          endchar
        </CharString>
        <CharString name="atilde">
          -60 callgsubr
          62 113 -71 -20 50 113 -15 callgsubr
          hintmask 0011110011000000
          345 579 -55 callgsubr
          hintmask 0011101111000000
          54 callgsubr
          hintmask 0011101011000000
          32 callsubr
          hintmask 0011101111000000
          -5 callgsubr
          hintmask 0011110011000000
          54 callsubr
          hintmask 1001101011000000
          -86 -485 -93 callsubr
          hintmask 0101101011000000
          104 -98 rmoveto
          hintmask 0011101011000000
          -102 callgsubr
          hintmask 1001101011000000
          -55 callsubr
        </CharString>
        <CharString name="b">
          -14 122 297 115 59 callgsubr
          66 142 159 141 hintmask 11011100
          223 -14 rmoveto
          152 133 111 184 146 -75 93 -105 -49 -40 -21 -29 -31 hvcurveto
          245 vlineto
          hintmask 11101100
          -142 -12 rlineto
          -689 vlineto
          hintmask 11011100
          -19 48 50 -9 59 hhcurveto
          51 122 rmoveto
          -25 -20 4 7 -21 hvcurveto
          266 vlineto
          13 20 21 7 20 hhcurveto
          59 39 -51 -108 -100 -29 -38 -64 hvcurveto
          endchar
        </CharString>
        <CharString name="backslash">
          -190 938 hstem
          -22 585 vstem
          102 748 rmoveto
          -124 -52 454 -886 131 39 rlineto
          endchar
        </CharString>
        <CharString name="bar">
          715 -20 hstem
          208 134 vstem
          208 715 rmoveto
          -899 134 910 vlineto
          endchar
        </CharString>
        <CharString name="braceleft">
          -216 956 49 callgsubr
          -216 -64 callsubr
        </CharString>
        <CharString name="braceleft.cap">
          -149 -21 49 callgsubr
          -170 -64 callsubr
        </CharString>
        <CharString name="braceright">
          630 -20 48 callsubr
          -215 -63 callgsubr
        </CharString>
        <CharString name="braceright.cap">
          -149 -21 48 callsubr
          -170 -63 callgsubr
        </CharString>
        <CharString name="bracketleft">
          -180 70 callgsubr
          -180 47 callsubr
        </CharString>
        <CharString name="bracketleft.cap">
          -134 70 callgsubr
          -134 47 callsubr
        </CharString>
        <CharString name="bracketright">
          -180 74 callsubr
          -68 50 callgsubr
        </CharString>
        <CharString name="bracketright.cap">
          -134 74 callsubr
          -22 50 callgsubr
        </CharString>
        <CharString name="breve">
          564 90 callgsubr
          70 411 vstem
          273 564 -103 callgsubr
          endchar
        </CharString>
        <CharString name="bullet">
          143 310 hstem
          116 317 vstem
          433 301 rmoveto
          92 -66 60 -89 -88 -74 -62 -95 -92 67 -61 88 88 74 62 96 vhcurveto
          endchar
        </CharString>
        <CharString name="bullet.alt">
          165 270 hstem
          139 272 vstem
          410 165 rmoveto
          2 270 rlineto
          -272 hlineto
          -2 -270 rlineto
          endchar
        </CharString>
        <CharString name="c">
          62 callsubr
          101 callgsubr
          64 244 -78 callgsubr
        </CharString>
        <CharString name="cacute">
          62 callsubr
          101 callgsubr
          157 -66 callgsubr
          -93 -378 -78 callgsubr
        </CharString>
        <CharString name="caron">
          707 -20 hstem
          80 389 vstem
          282 -35 callsubr
          endchar
        </CharString>
        <CharString name="caron.alt">
          550 259 hstem
          195 69 callgsubr
          186 567 -46 callgsubr
          endchar
        </CharString>
        <CharString name="ccaron">
          62 callsubr
          194 -20 101 callgsubr
          302 -35 callsubr
          -228 -310 -78 callgsubr
        </CharString>
        <CharString name="ccedilla">
          -7 117 -82 -21 375 131 hstemhm
          64 141 91 128 hintmask 10111000
          424 -119 rmoveto
          35 -26 39 -75 38 vhcurveto
          42 -3 49 1 55 5 14 117 rcurveline
          -70 callgsubr
          hintmask 01111000
          -109 39 -92 130 -36 vhcurveto
          -20 -46 rlineto
          26 callsubr
          hintmask 10111000
          42 callsubr
          endchar
        </CharString>
        <CharString name="cdotaccent">
          62 callsubr
          63 36 callgsubr
          64 141 16 148 hintmask 11101000
          367 576 -60 callsubr
          hintmask 11111000
          -155 -332 -78 callgsubr
        </CharString>
        <CharString name="cedilla">
          -231 266 hstem
          296 128 vstem
          213 -30 rmoveto
          41 callgsubr
          46 -44 52 -139 47 vhcurveto
          endchar
        </CharString>
        <CharString name="cent">
          27 118 219 131 125 -20 hstem
          61 135 vstem
          196 282 rmoveto
          40 18 35 75 12 vhcurveto
          -25 -186 rlineto
          -46 21 -22 33 45 vvcurveto
          258 -255 rmoveto
          15 118 -44 2 -38 4 -33 6 rlinecurve
          27 215 27 -1 31 -2 36 -5 rlinecurve
          16 131 -31 2 -29 1 -26 -1 rlinecurve
          17 123 rlineto
          -122 hlineto
          -14 -133 rlineto
          -177 -31 -48 -97 -92 vvcurveto
          -91 47 -74 127 -41 vhcurveto
          -21 -144 rlineto
          122 hlineto
          12 119 32 -4 35 -3 39 -2 rlinecurve
          endchar
        </CharString>
        <CharString name="check.1">
          3 -21 hstem
          42 488 vstem
          530 651 rmoveto
          -143 43 -48 -146 -44 -179 -34 -200 rlinecurve
          -7 hlineto
          -90 215 -122 -52 158 -350 123 6 59 242 68 218 80 203 rlinecurve
          endchar
        </CharString>
        <CharString name="check.2">
          3 67 callsubr
          hstemhm
          54 464 hintmask 01100000
          323 -13 rmoveto
          136 30 -133 256 192 375 -138 49 -126 -314 -69 152 -131 -46 124 -235 rlineto
          hintmask 10100000
          -112 -242 92 -30 89 174 rlineto
          endchar
        </CharString>
        <CharString name="circumflex">
          627 -20 hstem
          80 389 vstem
          383 561 -98 callgsubr
          endchar
        </CharString>
        <CharString name="colon">
          0 165 147 165 hstemhm
          180 187 -180 83 callsubr
          hintmask 11010000
          372 312 42 callgsubr
          hintmask 11100000
          178 -312 rmoveto
          6 43 callgsubr
          -6 -165 rlineto
          endchar
        </CharString>
        <CharString name="colon.alt">
          71 165 147 165 hstemhm
          183 83 callsubr
          -182.5 83 callsubr
          hintmask 11010000
          372 383 42 callgsubr
          hintmask 11100000
          182 -312 42 callgsubr
          endchar
        </CharString>
        <CharString name="colonmonetary">
          476 125 -82 -20 hstemhm
          48 129 1 104.5 0.5 101 -42.5 103 hintmask 01101000
          177 315 rmoveto
          60 32 54 118 28 vhcurveto
          -25 -282 rlineto
          -95 30 -30 42 68 vvcurveto
          100 -389 rmoveto
          103 hlineto
          8 103 rlineto
          hintmask 10010100
          21 -3 22 -3 23 -3 26 120 rcurveline
          -30 4 -27 4 -25 4 28 320 rcurveline
          25 2 28 1 30 1 -6 125 rcurveline
          -22 -1 -21 -1 -20 -2 9 96 rcurveline
          -103 hlineto
          -9 -111 -22 -5 -20 -5 -18 -6 rlinecurve
          11 127 rlineto
          -103 hlineto
          hintmask 01010000
          -14 -174 rlineto
          hintmask 01101000
          -90 -57 -33 -81 -83 vvcurveto
          -79 28 -59 59 -44 vhcurveto
          -20 -190 rlineto
          104 hlineto
          13 141 17 -7 20 -6 20 -5 rlinecurve
          endchar
        </CharString>
        <CharString name="comma">
          -158 334 hstem
          209 160 vstem
          166 -137 rmoveto
          76 -21 88 76 75 148 -54 110 rlinecurve
          -173 -7 50 -101 -13 -137 -49 -68 rlinecurve
          endchar
        </CharString>
        <CharString name="commaaccent">
          -291 228 hstem
          203 154 vstem
          189 -56 callsubr
        </CharString>
        <CharString name="commaaccent.rot">
          571 228 hstem
          191 154 vstem
          359 777 49 callsubr
          endchar
        </CharString>
        <CharString name="copyright">
          7 71 82 84 126 93 79 71 hstem
          32 77 63 93 177 76 vstem
          518 314 rmoveto
          186 -95 113 -138 -143 -110 -122 -185 -197 103 -102 144 137 102 113 194 vhcurveto
          -409 -4 rmoveto
          153 71 79 103 97 62 -82 -150 -162 -60 -70 -99 -100 -74 71 161 vhcurveto
          249 -66 rmoveto
          -73 -1 -20 18 59 vvcurveto
          37 12 15 78 -2 vhcurveto
          -6 93 rlineto
          -135 -7 -42 -67 -79 vvcurveto
          -90 42 -69 136 9 vhcurveto
          endchar
        </CharString>
        <CharString name="d">
          36 callsubr
          hintmask 10010111
          282 102 21 callsubr
          hintmask 01010111
          77 -105 rmoveto
          hintmask 00110111
          64 callgsubr
          hintmask 10011011
          27 callsubr
        </CharString>
        <CharString name="dagger">
          448 112 -108 113 137 -20 hstemhm
          211 117.5 hintmask 10110000
          319 144 rmoveto
          19 305 148 -2 7 112 86 callgsubr
          hintmask 01110000
          -138 vlineto
          -142 2 -6 -113 148 -2 rlineto
          -339 vlineto
          22 -10 rlineto
          endchar
        </CharString>
        <CharString name="daggerdbl">
          251 106.5 -102.5 107 92 106 -102 107 137 -20 hstemhm
          211 132.5 -132 125 -124.5 112 hintmask 01101001
          320 91 rmoveto
          hintmask 10101001
          8 161 151 -2 7 106 rlineto
          hintmask 10101010
          -152 3 5 96 147 -2 7 106 rlineto
          hintmask 01101100
          86 callgsubr
          hintmask 01011100
          -138 vlineto
          -142 2 -6 -107 rlineto
          hintmask 01011010
          148 -2 1 -96 -150 2 -6 -107 rlineto
          hintmask 01101001
          156 -2 rlineto
          -195 vlineto
          22 -10 rlineto
          endchar
        </CharString>
        <CharString name="dcaron">
          36 callsubr
          77 140 hintmask 0011011110000000
          550 567 -46 callgsubr
          hintmask 1001011110000000
          -268 -465 21 callsubr
          hintmask 0101011110000000
          77 -105 rmoveto
          hintmask 0011011110000000
          64 callgsubr
          hintmask 1001101110000000
          27 callsubr
        </CharString>
        <CharString name="dcroat">
          -14 116 -84 -21 28 -21 392 118 48 86 59 -20 hstemhm
          42 141 156 143 hintmask 10011111
          282 102 rmoveto
          -59 -40 46 112 92 35 44 61 18 20 -4 -7 22 hvcurveto
          1 -105 1 -90 2 -69 rrcurveto
          -12 -18 -18 -7 -25 hhcurveto
          hintmask 01011111
          76 -105 rmoveto
          hintmask 00111111
          132 7 rlineto
          -6 108 -2 152 247 vvcurveto
          50 55 87 -55 59 vlineto
          -143 -12 rlineto
          -47 -113 -86 113 -48 vlineto
          -167 -130 -105 -184 hvcurveto
          hintmask 10011111
          -151 75 -88 105 54 43 26 33 32 vhcurveto
          endchar
        </CharString>
        <CharString name="degree">
          288 104 191 105 hstem
          79 112 168 112 vstem
          471 492 rmoveto
          121 -81 75 -108 -108 -95 -80 -124 -121 82 -75 107 108 95 80 124 vhcurveto
          -112 -3 rmoveto
          -60 -36 -37 -47 -50 -35 41 55 58 35 37 48 49 36 -40 -54 vhcurveto
          endchar
        </CharString>
        <CharString name="dieresis">
          576 145 hstem
          92.5 -40 callsubr
          vstem
          459 576 -100 callgsubr
          endchar
        </CharString>
        <CharString name="divide">
          59 129 55 119 55 129 hstem
          204 142 cntrmask 11100000
          345 417 rmoveto
          3 84 callsubr
          293 -55 rmoveto
          -444 -119 444 hlineto
          -152 -184 rmoveto
          2 84 callsubr
          endchar
        </CharString>
        <CharString name="dollar">
          35 117 318 104 hstem
          60 154 122 154 vstem
          271 -74 rmoveto
          19 113 89 callsubr
          16 55 57 68 147 -276 55 60 vvcurveto
          33 73 11 179 -51 vhcurveto
          18 139 -37 5 -33 3 -31 2 rlinecurve
          22 109 -125 1 -19 -112 rlineto
          -146 -14 -55 -62 -69 -143 276 -49 -63 vvcurveto
          -36 -76 -9 -191 45 vhcurveto
          -26 -139 rlineto
          -5 46 42 -3 38 hhcurveto
          -23 -108 rlineto
          endchar
        </CharString>
        <CharString name="dotaccent">
          576 145 hstem
          201 92 callsubr
          347 576 -60 callsubr
          endchar
        </CharString>
        <CharString name="dotlessi">
          11 callgsubr
          43 callsubr
          521 hmoveto
          -71 callgsubr
        </CharString>
        <CharString name="e">
          -26 callgsubr
          -5 callsubr
          472 -12 -107 callsubr
        </CharString>
        <CharString name="eacute">
          -26 callgsubr
          181 -20 -5 callsubr
          151 630 -107 callgsubr
          321 -642 -107 callsubr
        </CharString>
        <CharString name="ebreve">
          -26 callgsubr
          52 112 -5 callsubr
          287 572 -103 callgsubr
          185 -584 -107 callsubr
        </CharString>
        <CharString name="ecaron">
          -26 callgsubr
          195 -20 -5 callsubr
          296 562 -99 callsubr
          186 -574 -107 callsubr
        </CharString>
        <CharString name="ecircumflex">
          -26 callgsubr
          115 -20 -5 callsubr
          392 569 -98 callgsubr
          202 -673 -107 callsubr
        </CharString>
        <CharString name="edieresis">
          64 callsubr
          -88.5 -40 callsubr
          -109 140 hintmask 11110110
          467 584 -100 callgsubr
          hintmask 11111001
          373 -596 -107 callsubr
        </CharString>
        <CharString name="edotaccent">
          64 callsubr
          26 148 -3 140 hintmask 11110100
          361 584 -60 callsubr
          hintmask 11111010
          259 -596 -107 callsubr
        </CharString>
        <CharString name="egrave">
          -26 callgsubr
          108 -20 -5 callsubr
          408 628 -99 callgsubr
          102 -579 -107 callsubr
        </CharString>
        <CharString name="eight">
          -14 106 436 106 hstemhm
          55 133 -125 135 155 131 -123 136 hintmask 11100100
          264 -14 rmoveto
          145 88 80 101 75 -57 47 -65 38 hvcurveto
          hintmask 11011000
          69 37 40 47 71 vvcurveto
          93 -89 59 -113 -143 -76 -88 -87 -67 48 -47 58 -38 vhcurveto
          hintmask 11100100
          -71 -40 -43 -53 -70 vvcurveto
          -96 89 -62 120 vhcurveto
          hintmask 11011000
          -66 489 rmoveto
          28 26 25 50 56 23 -31 -41 -32 -19 -32 -31 -24 vhcurveto
          -57 31 -48 31 45 vvcurveto
          hintmask 11100100
          79 -383 rmoveto
          -63 -26 34 46 36 19 33 32 25 hvcurveto
          64 -37 58 -33 -46 vvcurveto
          -33 -33 -25 -51 vhcurveto
          endchar
        </CharString>
        <CharString name="eight.den">
          -220 79 146 -21 33 -21 121 9 callgsubr
          hintmask 10111001
          267 -220 -50 callsubr
          hintmask 10110110
          -69 callgsubr
          vhcurveto
          hintmask 11010101
          15 callsubr
          hintmask 10111001
          -54 -22 -30 -32 -44 vvcurveto
          -30 callsubr
        </CharString>
        <CharString name="eight.inf">
          -160 48 callgsubr
          -160 -67 callgsubr
        </CharString>
        <CharString name="eight.num">
          415 79 125 -20 32 -20 141 9 callgsubr
          hintmask 10111001
          267 415 -50 callsubr
          hintmask 11010110
          -29 callsubr
          hintmask 11011001
          14 callsubr
          hintmask 10111001
          -30 callsubr
        </CharString>
        <CharString name="eight.small">
          -10 48 callgsubr
          -10 -67 callgsubr
        </CharString>
        <CharString name="eight.sup">
          315 79 125 -20 153 9 callgsubr
          hintmask 11110010
          267 315 -50 callsubr
          hintmask 11101100
          -29 callsubr
          hintmask 11110010
          23 callgsubr
          hintmask 11101100
          -89 callsubr
          hintmask 11110010
          -91 callsubr
        </CharString>
        <CharString name="ellipsis">
          0 175 hstem
          26 131 52 131 52 131 cntrmask 01110000
          520 41 callsubr
          -52 41 callsubr
          -52 41 callsubr
          endchar
        </CharString>
        <CharString name="emacron">
          -26 callgsubr
          76 121 -5 callsubr
          463 717 -31 callgsubr
          9 -608 -107 callsubr
        </CharString>
        <CharString name="emdash">
          249 107 hstem
          54 449 vstem
          503 356 rmoveto
          -449 -107 441 hlineto
          endchar
        </CharString>
        <CharString name="endash">
          249 107 hstem
          66 424 vstem
          490 356 rmoveto
          -424 -107 412 hlineto
          endchar
        </CharString>
        <CharString name="eogonek">
          -230 110 122 103 114 83 103 115 hstemhm
          49 140 31 135 5 140 hintmask 11111100
          445 -230 rmoveto
          12 110 rlineto
          20 callgsubr
          18 28 24 89 30 vhcurveto
          13 112 -59 callsubr
          hintmask 11111010
          -81 callgsubr
          -151 83 -91 203 2 hvcurveto
          hintmask 11111100
          -80 -42 -35 -43 -41 vvcurveto
          -53 13 callsubr
          hintmask 11111010
          -168 635 -88 callgsubr
        </CharString>
        <CharString name="equal">
          137 119 99 119 78 callsubr
          474 rmoveto
          78 callgsubr
          -99 vmoveto
          78 callgsubr
          endchar
        </CharString>
        <CharString name="eth">
          -16 115 252 111 172 -20 22 -20 101 -20 hstemhm
          44 139 184 136 hintmask 11011110
          262 -16 rmoveto
          129 112 100 185 114 -38 99 -79 90 hvcurveto
          67 27 -28 78 -102 -41 -31 27 -36 27 -39 27 rlinecurve
          hintmask 11101110
          -93 -83 25 -17 23 -17 21 -17 rlinecurve
          -87 -35 29 -78 124 50 18 -19 15 -19 13 -20 rlinecurve
          -138 -9 -123 -83 -155 vvcurveto
          hintmask 11011110
          -145 98 -86 120 vhcurveto
          17 115 rmoveto
          -50 -46 48 86 97 50 45 125 -37 hvcurveto
          6 -27 3 -29 -29 vvcurveto
          -105 -31 -49 -57 vhcurveto
          endchar
        </CharString>
        <CharString name="exclam">
          0 152 hstem
          183 174 vstem
          323 256 rmoveto
          50 422 rlineto
          -182 hlineto
          37 -422 rlineto
          127 -256 rmoveto
          4 152 rlineto
          -174 hlineto
          -4 -152 rlineto
          endchar
        </CharString>
        <CharString name="exclamdown">
          469 152 hstem
          193.5 174 vstem
          195 621 rmoveto
          -3 -152 rlineto
          174 hlineto
          3 152 rlineto
          -142 -256 rmoveto
          -50 -422 rlineto
          183 hlineto
          -38 422 rlineto
          endchar
        </CharString>
        <CharString name="f">
          0 106 262 107 108 137 hstem
          188 142 vstem
          470 106 rmoveto
          -140 262 151 107 -151 25 hlineto
          73 12 6 173 4 vhcurveto
          -9 137 rlineto
          -240 -12 -78 -103 -126 vvcurveto
          -4 -110 vlineto
          -12 -107 rlineto
          122 -262 -116 -106 386 hlineto
          endchar
        </CharString>
        <CharString name="five">
          6 -21 512.5 122.5 hstem
          102.5 124.5 124 132 vstem
          483 213 rmoveto
          78 -60 70 -199 30 vhcurveto
          6 107 224 -1 11 123 rlineto
          -353 hlineto
          -19 -318 rlineto
          187 -23 71 -33 -43 vvcurveto
          -52 -65 -19 -210 -17 vhcurveto
          8 -130 rlineto
          280 17 119 94 117 vvcurveto
          endchar
        </CharString>
        <CharString name="five.den">
          -222 7 callsubr
          -78 -104 callsubr
        </CharString>
        <CharString name="five.inf">
          -162 7 callsubr
          -18 -104 callsubr
        </CharString>
        <CharString name="five.num">
          413 99 215 93 hstem
          142 96 95 104 vstem
          -21 callgsubr
          endchar
        </CharString>
        <CharString name="five.small">
          -12 7 callsubr
          132 -104 callsubr
        </CharString>
        <CharString name="five.sup">
          313 7 callsubr
          457 -104 callsubr
        </CharString>
        <CharString name="fiveeighths">
          10 callgsubr
          63 45 callsubr
          14 callgsubr
          -81 96 95 104 -104 112 hintmask 1011111001100000
          -36 callsubr
          hintmask 1011111100010000
          -7 callsubr
          hintmask 1011111010100000
          -69 callgsubr
          vhcurveto
          hintmask 1101111010100000
          15 callsubr
          hintmask 1011111100100000
          -43 callsubr
        </CharString>
        <CharString name="fivesixths">
          -220 86 99 70 225 90 63 45 callsubr
          hstemhm
          103 106 -67 96 95 104 -95 104 hintmask 1111101100000000
          -36 callsubr
          hintmask 1111110010000000
          215 -570 -103 callsubr
        </CharString>
        <CharString name="four">
          21 -21 106 121 390 -20 29 -20 hstemhm
          322 130 hintmask 11011000
          507 106 rmoveto
          11 121 rlineto
          -66 209 hlineto
          -130 -14 rlineto
          -195 -147 vlineto
          hintmask 11101000
          99 390 rlineto
          hintmask 11011000
          -151 9 -44 -178 -21 -204 6 -138 rlinecurve
          258 -106 130 106 hlineto
          endchar
        </CharString>
        <CharString name="four.den">
          -142 40 callgsubr
          57 callsubr
          -143 -91 callgsubr
          endchar
        </CharString>
        <CharString name="four.inf">
          -82 40 callgsubr
          21.5 -21 81 callgsubr
          -83 -49 callsubr
          rlineto
          hintmask 01100000
          -4 callgsubr
          rlineto
          hintmask 10100000
          -4 callsubr
          194 2 rcurveline
          87 callgsubr
        </CharString>
        <CharString name="four.num">
          493 83 callgsubr
          57 callsubr
          492 -91 callgsubr
          endchar
        </CharString>
        <CharString name="four.small">
          0 156.5 -88.5 40 callgsubr
          81 callgsubr
          67 -74 callsubr
          rlineto
          hintmask 01100000
          -4 callsubr
          194 2 rcurveline
          hintmask 10100000
          87 callgsubr
        </CharString>
        <CharString name="four.sup">
          393 40 callgsubr
          236.5 -20 57 callsubr
          392 -91 callgsubr
          endchar
        </CharString>
        <CharString name="fourfifths">
          52 callsubr
          143 83 callgsubr
          hstemhm
          142 96 68.5 103 -76.5 104 hintmask 01111110
          451 492 -91 callgsubr
          -350 -233 -77 callgsubr
        </CharString>
        <CharString name="fraction">
          712 -20 hstem
          12 521 vstem
          132 -160 rmoveto
          401 872 -120 49 -401 -873 rlineto
          endchar
        </CharString>
        <CharString name="fraction.afrc">
          260 90 hstem
          59 432 vstem
          59 260 -47 callsubr
          endchar
        </CharString>
        <CharString name="g">
          23 callsubr
          hstem
          44 140 158 142 vstem
          119 -178 rmoveto
          -97 callsubr
        </CharString>
        <CharString name="gbreve">
          23 callsubr
          52 90 callgsubr
          44 140 158 142 vstem
          293 571 -103 callgsubr
          -174 -749 rmoveto
          -97 callsubr
        </CharString>
        <CharString name="gcommaaccent">
          23 callsubr
          hstemhm
          44 140 21 154 -17 142 hintmask 11111000
          373 784 49 callsubr
          -254 -962 rmoveto
          hintmask 11110100
          -97 callsubr
        </CharString>
        <CharString name="gdotaccent">
          23 callsubr
          64 36 callgsubr
          44 140 37 148 -27 142 hintmask 10111100
          367 583 -60 callsubr
          -100 -761 rmoveto
          hintmask 11111010
          -97 callsubr
        </CharString>
        <CharString name="germandbls">
          -9 120 -111 111 487 120 hstemhm
          54 141 56 138 -62 143 -76 144 hintmask 10111000
          389 359 rmoveto
          hintmask 01110100
          44 81 45 112 vvcurveto
          75 -52 83 -122 -157 -85 -116 -148 vhcurveto
          -454 141 483 vlineto
          85 21 30 49 42 20 -33 -37 vhcurveto
          hintmask 10111000
          -64 -76 -49 -76 vvcurveto
          hintmask 10110010
          -119 143 -15 -56 vvcurveto
          -35 -37 -9 -96 9 vhcurveto
          -6 -123 rlineto
          223 -5 60 85 82 vvcurveto
          hintmask 10111000
          123 -149 27 56 vvcurveto
          endchar
        </CharString>
        <CharString name="grave">
          620 -20 hstem
          120 317 vstem
          437 620 -99 callgsubr
          endchar
        </CharString>
        <CharString name="greater">
          522 -20 122 -20 hstem
          354 127 vstem
          148 -27 rmoveto
          333 268 rlineto
          117 vlineto
          -328 266 -79 -102 280 -217 rlineto
          -12 vlineto
          -281 -219 rlineto
          endchar
        </CharString>
        <CharString name="greaterequal">
          -1 119 401 -20 126 -20 hstem
          335 92 callsubr
          335 382 rmoveto
          -7 vlineto
          -257 -112 45 -110 361 166 -2 105 -349 201 -55 -106 rlineto
          -15 -401 rmoveto
          -119 425 119 vlineto
          endchar
        </CharString>
        <CharString name="guillemotleft">
          0 -21 hstem
          20 520 vstem
          184 -21 -13 callgsubr
        </CharString>
        <CharString name="guillemotleft.cap">
          501 -20 hstem
          20 520 vstem
          184 33 -13 callgsubr
        </CharString>
        <CharString name="guillemotright">
          0 -21 hstem
          10 520 vstem
          361 -21 -20 callgsubr
        </CharString>
        <CharString name="guillemotright.cap">
          502 -20 hstem
          10 520 vstem
          361 33 -20 callgsubr
        </CharString>
        <CharString name="guilsinglleft">
          0 -21 95 callgsubr
          -21 38 callsubr
        </CharString>
        <CharString name="guilsinglleft.cap">
          33 550 95 callgsubr
          33 38 callsubr
        </CharString>
        <CharString name="guilsinglright">
          0 -21 94 callsubr
          -21 35 callsubr
        </CharString>
        <CharString name="guilsinglright.cap">
          33 550 94 callsubr
          33 35 callsubr
        </CharString>
        <CharString name="h">
          21 -21 399 97 callgsubr
          65 142 142 142 hintmask 11011100
          281 399 -50 callgsubr
          -61 -46 -25 -31 -37 vhcurveto
          251 vlineto
          hintmask 11101100
          71 callgsubr
          378 vlineto
          hintmask 11011100
          99 callsubr
        </CharString>
        <CharString name="hbar">
          21 -21 399 116 47 86 55 -20 32 -20 hstemhm
          64 143 142 142 hintmask 11101110
          281 399 -40 callgsubr
          119 -54 50 -86 -61 -46 -25 -31 -37 vhcurveto
          103 114 86 -114 67 vlineto
          hintmask 11110110
          -143 -12 rlineto
          -55 -55 -87 55 -561 143 378 vlineto
          hintmask 11101110
          99 callsubr
        </CharString>
        <CharString name="hcoslug">
          -100 75 4 9 -8 10 -10 14 -4 11 -10 10 -9 7 0 12 -11 11 -7 15 -15 26 -25 26 -15 8 -8 15 -12 12 0 14 -9 10 -10 19 -9 11 2 8 -7 32 71.5 22.5 hstemhm
          50 64 10 16 -3 8 5 40 -35 12 -1 12 14 10 -2 10 -10 42 -31 9 -1 7 3 12 -6 11 9 40 -29 13 -9 10 0 12 -4 11 -2 12 -5 16 18 11 10 8 hintmask 001000000000000010000010000010000010000010010000
          500 700 rmoveto
          -450 hlineto
          hintmask 100000000000000000001110000000100000001000000000
          -800 450 vlineto
          -300 396 rmoveto
          -17 11 -11 17 -16 vhcurveto
          9 13 5 12 12 vvcurveto
          18 -9 11 -13 -12 -8 -9 -13 vhcurveto
          49 -64 rmoveto
          12 -12 9 -12 9 -11 15 25 3 18 -17 17 -7 -7 -10 -9 -14 -9 rrcurveto
          -39 -93 rmoveto
          12 9 3 6 8 hvcurveto
          -21 27 -21 22 -14 13 rrcurveto
          -8 -8 -4 -11 -11 vvcurveto
          -23 17 -18 22 vhcurveto
          91 34 rmoveto
          -22 19 13 -9 15 hhcurveto
          15 9 9 13 8 hvcurveto
          5 -1 rlineto
          -44 -1 -27 -27 -32 hhcurveto
          -22 -17 8 26 -25 hvcurveto
          -23 -21 -25 -11 -32 hhcurveto
          -45 -36 30 40 31 21 24 40 13 hvcurveto
          -16 17 -7 13 22 vvcurveto
          32 31 32 51 46 25 -30 -26 -10 -2 -8 -5 -7 vhcurveto
          20 15 -8 -20 2 hvcurveto
          18 12 14 10 19 hhcurveto
          21 16 -15 -24 -23 -16 -17 -21 -14 -12 7 12 -6 hvcurveto
          -12 -7 -12 -10 -11 -15 rrcurveto
          hintmask 000000000000000000001000000000000100000000000000
          -72 -105 rmoveto
          -8 10 -5 -10 vlineto
          hintmask 000000000000000001000000000000000100000000000000
          -15 vlineto
          -3 1 -1 2 2 1 1 4 1 vhcurveto
          4 -1 rlineto
          -2 -7 -3 -3 -6 -6 -3 4 55 callsubr
          hintmask 000000000000000000100000000000010000000000000000
          15 -5 5 5 7 vlineto
          hintmask 000000000000000010000000100000000000000000000000
          -75 -21 37 callsubr
          61 callgsubr
          22 hmoveto
          -2 callsubr
          hintmask 000000000000000100000000000000000000000100000000
          132 -1 rmoveto
          0 6 -2 4 -3 -5 -1 -5 55 callsubr
          0 -6 1 -4 5 3 2 4 55 callsubr
          61 callgsubr
          -120 -9 rmoveto
          4 hlineto
          hintmask 000000000000000000100010000000000000000000000000
          19 -4 5 vlineto
          hintmask 000000000000000000001000000010000000000000000000
          13 -6 hlineto
          4 2 3 3 5 hhcurveto
          7 2 -5 -6 hvcurveto
          hintmask 000000000000000010000000000000010000000000000000
          -14 5 -5 vlineto
          hintmask 000000000001000000000000000010000000000000000000
          -17 5 3 hlineto
          hintmask 000000000000000000100000000010000000000000000000
          13 vlineto
          3 -1 3 -3 -3 -3 -3 -5 vhcurveto
          -11 3 -5 vlineto
          61 callgsubr
          -16 hlineto
          -71 5 rmoveto
          6 hlineto
          hintmask 000000000000000000010010000000000000000000000000
          31 -6 5 vlineto
          hintmask 000000000000000000001000001000000000000000000000
          38 hlineto
          hintmask 000000000000000000100000001000000000000000000000
          -15 -5 vlineto
          8 -2 -1 2 -6 hhcurveto
          -8 hlineto
          hintmask 000000000000000000010001000000000000000000000000
          -14 3 vlineto
          4 0 1 5 1 hvcurveto
          5 hlineto
          hintmask 000000000000000010000000100000000000000000000000
          -17 -5 vlineto
          5 -1 0 1 -4 hhcurveto
          -3 hlineto
          hintmask 000000000000000010000001000000000000000000000000
          -12 7 -5 vlineto
          61 callgsubr
          -23 hlineto
          hintmask 000000000000000001000000000000000100000000000000
          133 10 rmoveto
          5 hlineto
          -4 3 3 -3 3 hhcurveto
          3 1 2 1 hvcurveto
          hintmask 000000000000000000010000000000000100000000000000
          7 -18 -4 12 vvcurveto
          4 4 5 7 3 3 -1 -3 2 vhcurveto
          1 4 rlineto
          5 -10 -5 hlineto
          4 -3 -2 1 -3 hhcurveto
          -2 -2 -1 -2 hvcurveto
          hintmask 000000000001000000000000000000000000100000000000
          -5 18 2 -11 vvcurveto
          -5 -3 -4 -7 -5 -3 2 2 -2 vhcurveto
          -1 -3 rlineto
          -5 hlineto
          hintmask 000000000000000000010000000000000000100000000000
          38 38 rmoveto
          -5 5 hlineto
          hintmask 000000000000000000001000000000000000000100000000
          14 hlineto
          hintmask 000000000000000000010000000000000000000100000000
          -20 vlineto
          4 1 4 3 4 hhcurveto
          hintmask 000000000010000000000000000000000000000010000000
          7 0 5 -6 0 -9 0 -7 -3 -9 0 flex1
          -6 -3 2 4 -2 hvcurveto
          -3 -6 rlineto
          -4 hlineto
          hintmask 100000000000000000001000000000000000000010000000
          39 -6 rmoveto
          3 3 2 4 hvcurveto
          -3 7 -9 18 0 vvcurveto
          -3 5 18 -5 -4 hlineto
          7 -15 6 15 rlineto
          -4 5 13 -5 -4 hlineto
          hintmask 000000000100000000000000000000000000000010000000
          -10 -24 rlineto
          -7 -3 -4 -5 -6 hhcurveto
          -6 -3 3 4 3 2 2 3 hvcurveto
          hintmask 100000000000000000001000000000000000000010000000
          5 1 -5 -2 -2 hvcurveto
          hintmask 000000001000000000000000000000000000000000000000
          45 -24 rmoveto
          -6 -4 vlineto
          -2 -4 -2 -3 -3 -3 rrcurveto
          2 -2 2 -2 1 1 1 1 1 hflex1
          3 -1 rlineto
          -5 -1 -2 -4 -6 hhcurveto
          hintmask 100000000000000000000000000000000000000001000000
          -4 0 -2 2 -3 3 -3 -3 -4 -2 -6 flex1
          -7 -5 4 6 6 4 3 6 2 hvcurveto
          -3 3 -2 3 4 vvcurveto
          hintmask 000000000000100000000000000000000000000000100000
          5 4 6 9 6 4 -4 -5 -5 -3 -2 -5 -3 vhcurveto
          2 -2 4 -5 3 -3 2 2 2 3 1 2 rrcurveto
          -5 6 hlineto
          hintmask 000000000010000000000000000000000010000000000000
          -114 4 rmoveto
          11 4 hlineto
          -3 -2 2 2 2 1 1 0 hvcurveto
          0 -1 1 -2 -2 -2 -2 -6 vhcurveto
          hintmask 100000000000000000000000000000000000000000010000
          132 -13 rmoveto
          hintmask 000010000000000000000000000000000000000000010000
          15 9 8 11 vhcurveto
          hintmask 000010000000000000000000000000000000000000000000
          5 4 -2 -3 3 hvcurveto
          4 6 vlineto
          -16 -6 vlineto
          hintmask 000000010000000000000000000000000000000000000000
          9 -3 -2 3 -6 hhcurveto
          -6 -4 -5 -12 hvcurveto
          hintmask 010000000000000000000000000000000000000000000000
          -11 4 -6 8 vhcurveto
          hintmask 000001000000000000000000000000000000000000000000
          6 3 6 6 1 hvcurveto
          6 hlineto
          hintmask 100000000000000000000000000000000000000000000000
          -10 -1 -6 -7 -11 hhcurveto
          hintmask 100000000000000000000000000000000000000000010000
          -13 -8 7 14 hvcurveto
          hintmask 000000010000000000000000000000000000000000100000
          -29 4 rmoveto
          2 1 2 3 3 vvcurveto
          3 -2 2 -3 -2 -2 -1 -3 -2 2 -3 3 -3 vhcurveto
          hintmask 001000000000000000000000000000000000010000000000
          -68 -11 rmoveto
          77 callgsubr
          hintmask 100000000000000000000000000000000000010000000000
          -6 -1 -4 -5 -8 hhcurveto
          -10 -6 6 9 hvcurveto
          hintmask 000000000001000000000000000000000000010000000000
          10 7 6 8 11 4 -7 -10 -1 vhcurveto
          hintmask 001000000000000000000000000001000000000000000000
          -89 hmoveto
          77 callgsubr
          77 callsubr
          -6 -1 -4 -5 -8 hhcurveto
          hintmask 100000000000000000000000010000000000000000000000
          -10 -6 6 9 hvcurveto
          hintmask 000000000001000000000000010000000000000000000000
          10 7 6 8 vhcurveto
          hintmask 000000000001000000000000000000001000000000000000
          11 4 -7 -10 -1 hvcurveto
          hintmask 001000000000000000000010000001000000000000000000
          -63 2 37 callsubr
          252 hmoveto
          hintmask 001000000000000000000000000000000000000000000000
          50 callsubr
          hintmask 001000000000000000000010000001000000000000000000
          52 callgsubr
          hintmask 000000100000000000000000000001000000010000000000
          -138 2 rmoveto
          73 callsubr
          -70 hmoveto
          73 callsubr
          hintmask 001000000000000000000000000100000000000000000000
          -22 -2 rmoveto
          -2 callsubr
          hintmask 001000000000000000000000000000000000000000000000
          252 hmoveto
          -2 callsubr
          77 callsubr
          -208 -10 rmoveto
          4 hlineto
          hintmask 000000100000000000000000000000001000000000000000
          19 -5 5 5 1 vlineto
          hintmask 000000000000001000000000000000001000000000000000
          10 7 4 6 4 2 -1 -1 2 vhcurveto
          8 2 rlineto
          hintmask 001000000000000000000000000000000000100000000000
          -39 4 -5 vlineto
          hintmask 100000000000000000000000000000000010000000000000
          -17 5 4 hlineto
          hintmask 000000100000000000000000000000000010000000000000
          19 -11 vlineto
          hintmask 001000000000000000000000000000000010000000000000
          -19 4 -5 vlineto
          77 callsubr
          -17 hlineto
          hintmask 100000000000000000000000000000000001000000000000
          69 5 rmoveto
          4 hlineto
          hintmask 000000100000000000000000000000000001000000000000
          19 -4 5 vlineto
          hintmask 000000000001000000000000000000000000000001000000
          13 -6 hlineto
          5 2 3 2 4 hhcurveto
          4 2 -2 -4 -3 -2 -2 -3 -2 -3 1 3 hvcurveto
          1 vlineto
          -1 -3 -3 -4 -1 hvcurveto
          hintmask 001000000000000000000000000000000000000001000000
          -12 6 -5 vlineto
          hintmask 100000000000000000000000000000000001000000000000
          -19 hlineto
          hintmask 100000000000000000000010000000000000000000000000
          -183 5 rmoveto
          6 hlineto
          hintmask 000000010000000000000010000000000000000000000000
          31 -6 5 vlineto
          hintmask 000000000000010000000001000000000000000000000000
          21 -5 -5 hlineto
          hintmask 000000010000000000000001000000000000000000000000
          -12 16 12 -5 5 vlineto
          hintmask 000000000000010000000000000100000000000000000000
          21 -5 -6 hlineto
          hintmask 001000000000000000000000000100000000000000000000
          -31 6 -5 vlineto
          hintmask 100000000000000000000001000000000000000000000000
          -21 5 5 hlineto
          hintmask 000100000000000000000001000000000000000000000000
          14 -16 vlineto
          hintmask 001000000000000000000001000000000000000000000000
          -14 5 -5 vlineto
          hintmask 100000000000000000000010000000000000000000000000
          -21 hlineto
          hintmask 001000000000000000000000000000000000000000100000
          234 7 rmoveto
          -2 2 -4 5 -4 4 rrcurveto
          -2 -2 -1 -2 -3 vvcurveto
          -4 3 -3 4 2 2 1 2 2 vhcurveto
          hintmask 100000000000000000000000000000000000000000000000
          111 -2 rmoveto
          0 -3 -2 -3 -4 -4 -2 3 55 callsubr
          0 3 2 3 4 4 2 -3 55 callsubr
          endchar
        </CharString>
        <CharString name="hungarumlaut">
          566 246 hstem
          114 448 vstem
          114 608 -87 callgsubr
          endchar
        </CharString>
        <CharString name="hyphen">
          242 121 hstem
          116 325 vstem
          441 363 rmoveto
          -325 -121 313 hlineto
          endchar
        </CharString>
        <CharString name="i">
          11 callgsubr
          59 callsubr
          224.5 91 callgsubr
          hintmask 11110000
          65 callgsubr
          301 22 callgsubr
        </CharString>
        <CharString name="iacute">
          11 callgsubr
          43 callsubr
          167 -66 callgsubr
          354 -622 rmoveto
          -71 callgsubr
        </CharString>
        <CharString name="ibreve">
          11 callgsubr
          58 112 43 callsubr
          303 564 -103 callgsubr
          218 -564 rmoveto
          -71 callgsubr
        </CharString>
        <CharString name="icircumflex">
          11 callgsubr
          121 -20 43 callsubr
          408 561 -98 callgsubr
          235 -653 rmoveto
          -71 callgsubr
        </CharString>
        <CharString name="idieresis">
          11 callgsubr
          59 callsubr
          116.5 144 -33.5 143 -28.5 -3 callsubr
          hintmask 11110100
          483 576 -100 callgsubr
          406 22 callgsubr
        </CharString>
        <CharString name="igrave">
          11 callgsubr
          114 -20 43 callsubr
          424 620 -99 callgsubr
          135 -559 rmoveto
          -71 callgsubr
        </CharString>
        <CharString name="imacron">
          11 callgsubr
          82 121 43 callsubr
          479 709 -31 callgsubr
          42 -588 rmoveto
          -71 callgsubr
        </CharString>
        <CharString name="iogonek">
          103 callgsubr
          123 106 295 105 59 callsubr
          148 135 -58.5 91 callgsubr
          hintmask 11110100
          65 callgsubr
          165 -699 rmoveto
          hintmask 11111000
          20 callgsubr
          21 19 27 61 34 vhcurveto
          158 hlineto
          79 callgsubr
          hintmask 01110010
          -70 callsubr
          vlineto
          hintmask 11111000
          -163 -106 172 hlineto
          -61 -43 -27 -41 -39 vvcurveto
          17 callgsubr
          endchar
        </CharString>
        <CharString name="j">
          -175 132 442.5 106.5 59 callsubr
          261.5 149 -140.5 142 hintmask 11110000
          408 576 rmoveto
          5 -2 callgsubr
          -149 hlineto
          -5 -145 rlineto
          hintmask 11101000
          153 -501 rmoveto
          431 -325 vlineto
          -11 -101 194 -11 rlineto
          -350 vlineto
          -76 -15 -7 -192 -4 vhcurveto
          -5 -132 rlineto
          263 3 91 95 152 vvcurveto
          endchar
        </CharString>
        <CharString name="k">
          18 callgsubr
          -26 callsubr
          endchar
        </CharString>
        <CharString name="kcommaaccent">
          18 callgsubr
          3 154 -26 callsubr
          hintmask 0011010101000000
          -56 -487 -96 callsubr
        </CharString>
        <CharString name="l">
          86 callsubr
          vstem
          35 callgsubr
          endchar
        </CharString>
        <CharString name="lacute">
          86 callsubr
          vstem
          148 817 -107 callgsubr
          340 -817 rmoveto
          -52 callgsubr
          endchar
        </CharString>
        <CharString name="lcaron">
          86 callsubr
          74 69 callgsubr
          416 567 -46 callgsubr
          72 -567 rmoveto
          -52 callgsubr
          endchar
        </CharString>
        <CharString name="lcommaaccent">
          0 106 489 106 hstemhm
          208 143 -141 154 hintmask 11100000
          35 callgsubr
          hintmask 11010000
          136 -56 callsubr
        </CharString>
        <CharString name="ldot">
          0 106 148 148 193 58 callgsubr
          139.5 128.5 vstem
          35 callgsubr
          555 254 rmoveto
          8 148 rlineto
          -128 hlineto
          -9 -148 rlineto
          endchar
        </CharString>
        <CharString name="less">
          524 -20 121 -20 hstem
          73 127 vstem
          406 625 rmoveto
          -333 -268 rlineto
          -117 vlineto
          328 -266 79 102 -280 217 rlineto
          12 vlineto
          281 219 rlineto
          endchar
        </CharString>
        <CharString name="lessequal">
          -1 119 507 -20 hstem
          68 92 callsubr
          216 382 rmoveto
          257 137 -55 106 -349 -201 -2 -105 361 -166 45 110 -257 112 rlineto
          272 -257 rmoveto
          -425 -119 425 hlineto
          endchar
        </CharString>
        <CharString name="lslash">
          0 106 393 -20 116 58 callgsubr
          vstem
          488 hmoveto
          79 callgsubr
          -149 248 hlineto
          111 55 -21 90 -90 -45 rlineto
          247 -277 vlineto
          -12 -102 146 -8 rlineto
          -208 vlineto
          -118 -58 21 -90 97 48 rlineto
          -177 -148 -106 vlineto
          endchar
        </CharString>
        <CharString name="m">
          82 callgsubr
          38 130 63 94 62 130 hintmask 11001110
          205 399 rmoveto
          16 10 -10 -34 hvcurveto
          -355 94 385 vlineto
          9 9 10 5 14 hhcurveto
          18 11 -10 -34 hvcurveto
          -355 130 402 vlineto
          76 -25 42 -60 -45 -33 -24 -30 -26 vhcurveto
          33 -9 -22 21 -39 hhcurveto
          -40 -33 -22 -30 -26 hvcurveto
          hintmask 10101110
          -4 41 rlineto
          hintmask 10011110
          -121 -7 rlineto
          4 -113 0 -155 -234 vvcurveto
          130 hlineto
          hintmask 11001110
          155 -1 132 -1 97 vhcurveto
          9 12 12 6 15 hhcurveto
          endchar
        </CharString>
        <CharString name="macron">
          588 121 hstem
          95 360 vstem
          455 709 -31 callgsubr
          endchar
        </CharString>
        <CharString name="minus">
          243 119 78 callsubr
          362 rmoveto
          78 callgsubr
          endchar
        </CharString>
        <CharString name="mu">
          72 callgsubr
          151 119 -98 -21 29 -21 23 -45 callgsubr
          -15 callsubr
          hintmask 0100001001110000
          198 -164 rmoveto
          hintmask 0100100001110000
          -3 159 rlineto
          hintmask 0101000001110000
          -6 13 14 -2 16 hhcurveto
          52 38 30 36 30 hvcurveto
          hintmask 0100010001110000
          7 -56 rlineto
          hintmask 0100001010110000
          129 -72 callsubr
          hintmask 0110000001110000
          -151 1 -130 2 -95 vhcurveto
          -15 -23 -25 -9 -29 hhcurveto
          -41 -26 19 69 hvcurveto
          316 vlineto
          hintmask 1000001100110000
          -142 -8 rlineto
          -678 vlineto
          endchar
        </CharString>
        <CharString name="multiply">
          524 -20 hstem
          51 449 vstem
          411 76 rmoveto
          89 87 -138 141 134 136 -86 84 -133 -134 -136 138 -90 -88 138 -140 -134 -135 86 -85 133 135 rlineto
          endchar
        </CharString>
        <CharString name="n">
          82 callgsubr
          66 142 141 142 hintmask 11001100
          281 399 -57 callsubr
          hintmask 10101100
          -7 56 rlineto
          hintmask 10011100
          -27 callsubr
          hintmask 11001100
          -18 callsubr
          endchar
        </CharString>
        <CharString name="nacute">
          12 callgsubr
          207 -20 53 callgsubr
          hintmask 11001110
          142 636 -107 callgsubr
          139 -237 -38 callgsubr
        </CharString>
        <CharString name="naira">
          21 -21 138 90 -89 111 104 111 -88 90 153 -20 hstemhm
          86 113.5 170 108.5 hintmask 11001111
          367 242 rmoveto
          -60 135 rlineto
          64 hlineto
          1 -135 rlineto
          -175 129 rmoveto
          6 hlineto
          64 -143 rlineto
          -69 hlineto
          171 -228 rmoveto
          109 hlineto
          hintmask 10110111
          139 56 111 -56 104 57 111 -57 155 -109 vlineto
          hintmask 11001111
          1 -153 rlineto
          -102 hlineto
          -68 153 rlineto
          -114 hlineto
          hintmask 10110111
          -155 -58 -111 58 -104 -58 -111 58 -139 114 vlineto
          hintmask 11001111
          -1 138 rlineto
          108 hlineto
          endchar
        </CharString>
        <CharString name="ncaron">
          12 callgsubr
          205 -20 53 callgsubr
          hintmask 11001110
          287 568 -99 callsubr
          4 -169 -38 callgsubr
        </CharString>
        <CharString name="ncommaaccent">
          82 callgsubr
          66 142 11 154 -24 142 hintmask 11001010
          281 399 -57 callsubr
          hintmask 10101010
          -7 56 rlineto
          hintmask 10011010
          -27 callsubr
          hintmask 11001010
          -18 callsubr
          hintmask 11001100
          -76 -668 -96 callsubr
        </CharString>
        <CharString name="nine">
          -1 -21 262 96 188 110 hstem
          51 131 183 132 vstem
          170 -22 rmoveto
          227 98 100 138 174 vvcurveto
          161 -88 85 -132 -121 -105 -82 -134 -159 160 -65 140 81 vhcurveto
          -25 -69 -64 -53 -150 -58 rrcurveto
          70 336 rmoveto
          62 33 31 49 56 45 -44 -106 vhcurveto
          -6 0 -6 -5 vvcurveto
          -109 -47 -74 33 88 vvcurveto
          endchar
        </CharString>
        <CharString name="nine.den">
          -61 0 callgsubr
          -228 -95 callsubr
        </CharString>
        <CharString name="nine.inf">
          -147 -21 167 0 callgsubr
          -168 -95 callsubr
        </CharString>
        <CharString name="nine.num">
          574 0 callgsubr
          407 -95 callsubr
        </CharString>
        <CharString name="nine.small">
          3 -21 167 0 callgsubr
          -18 -95 callsubr
        </CharString>
        <CharString name="nine.sup">
          474 0 callgsubr
          307 -95 callsubr
        </CharString>
        <CharString name="notequal">
          16 -21 142 119 99 119 143 -20 78 callsubr
          137 rmoveto
          119 -167 vlineto
          35 99 rlineto
          132 119 -89 hlineto
          40 111 -107 32 -52 -143 rlineto
          -212 -119 170 hlineto
          -36 -99 rlineto
          -134 -119 91 hlineto
          -40 -111 108 -31 51 142 rlineto
          endchar
        </CharString>
        <CharString name="ntilde">
          12 callgsubr
          83 113 -71 -20 50 113 53 callgsubr
          hintmask 1100100110000000
          350 583 -55 callgsubr
          hintmask 1100011110000000
          54 callgsubr
          hintmask 1100010110000000
          32 callsubr
          hintmask 1100011110000000
          -5 callgsubr
          hintmask 1100100110000000
          54 callsubr
          hintmask 1100010110000000
          -69 -184 -57 callsubr
          hintmask 1010010110000000
          -7 56 rlineto
          hintmask 1001010110000000
          -27 callsubr
          hintmask 1100010110000000
          -18 callsubr
          endchar
        </CharString>
        <CharString name="numbersign">
          21 -21 148 117 92 117 146 -20 hstem
          137.5 95 85 95 vstem
          313 265 rmoveto
          -85 hlineto
          9 92 rlineto
          85 hlineto
          -36 -357 rmoveto
          95 hlineto
          15 148 rlineto
          87 hlineto
          12 117 rlineto
          -87 hlineto
          9 92 rlineto
          86 hlineto
          13 117 rlineto
          -88 hlineto
          15 146 rlineto
          -95 hlineto
          -15 -146 rlineto
          -85 hlineto
          15 146 rlineto
          -95 hlineto
          -15 -146 rlineto
          -85 hlineto
          -12 -117 rlineto
          86 hlineto
          -9 -92 rlineto
          -85 hlineto
          -13 -117 rlineto
          86 hlineto
          -15 -148 rlineto
          95 hlineto
          15 148 rlineto
          85 hlineto
          endchar
        </CharString>
        <CharString name="numero">
          0 157 -94 94 463 -20 27 -20 hstemhm
          15 107.5 51.5 108 18 243 -235 224 hintmask 10011110
          410 189 rmoveto
          80 53 91 144 137 -41 66 -69 -80 -53 -91 -144 -137 41 -66 69 hvcurveto
          hintmask 10101100
          -215 -189 rmoveto
          87 620 76 callgsubr
          10 -261 rlineto
          -2 hlineto
          -70 261 rlineto
          -92 -620 113 hlineto
          -11 303 rlineto
          3 hlineto
          hintmask 01011101
          412 -240 rmoveto
          hintmask 10011101
          94 -224 vlineto
          hintmask 01011101
          -94 vlineto
          endchar
        </CharString>
        <CharString name="o">
          2 callgsubr
          -6 callgsubr
          255 -16 -104 callgsubr
        </CharString>
        <CharString name="oacute">
          2 callgsubr
          179 -20 -6 callgsubr
          144 630 -107 callgsubr
          111 -646 -104 callgsubr
        </CharString>
        <CharString name="obreve">
          2 callgsubr
          50 112 -6 callgsubr
          280 572 -103 callgsubr
          -25 -588 -104 callgsubr
        </CharString>
        <CharString name="ocircumflex">
          2 callgsubr
          113 -20 -6 callgsubr
          384 569 -98 callgsubr
          -7 -677 -104 callgsubr
        </CharString>
        <CharString name="odieresis">
          2 callgsubr
          62 36 callgsubr
          41 145 -92.5 -40 callsubr
          -96 144 hintmask 11101100
          460 584 27 callgsubr
          163 -600 -104 callgsubr
        </CharString>
        <CharString name="oe">
          -9 113 -111 116 111 80 102 113 hstemhm
          16 140 71 119 61 124 hintmask 10111110
          196 104 rmoveto
          -29 -11 55 107 98 12 38 21 27 11 -55 -106 -99 -10 -38 -21 hvcurveto
          180 296 rmoveto
          20 8 -33 -64 3 hvcurveto
          -17 -1 -23 -1 -22 -1 rrcurveto
          77 2 9 23 20 hhcurveto
          hintmask 01111110
          141 -407 rmoveto
          9 116 -150 -2 -26 24 -4 86 rlinecurve
          185 6 rlineto
          185 12 -49 107 -99 hhcurveto
          -39 -35 -21 -37 -26 hvcurveto
          38 -22 -31 20 -41 hhcurveto
          -110 -75 -109 -167 hvcurveto
          hintmask 10111110
          -167 63 -81 93 46 37 25 43 27 vhcurveto
          hintmask 01111110
          40 -47 70 -24 125 5 rrcurveto
          endchar
        </CharString>
        <CharString name="ogonek">
          103 callgsubr
          144 -21 hstemhm
          140 135 -135 247 hintmask 11010000
          351 53 rmoveto
          hintmask 11100000
          -148 -63 -63 -58 -55 vvcurveto
          17 callgsubr
          -7 callgsubr
          endchar
        </CharString>
        <CharString name="ograve">
          2 callgsubr
          106 -20 -6 callgsubr
          400 628 -99 callgsubr
          -107 -583 -104 callgsubr
        </CharString>
        <CharString name="ohungarumlaut">
          2 callgsubr
          94 -20 -6 callgsubr
          101 616 -87 callgsubr
          -59 -630 -104 callgsubr
        </CharString>
        <CharString name="omacron">
          2 callgsubr
          74 121 -6 callgsubr
          456 717 -31 callgsubr
          -201 -612 -104 callgsubr
        </CharString>
        <CharString name="one">
          0 118 318 110 81 -20 31 -20 hstemhm
          234 136 hintmask 11011000
          506 hmoveto
          11 118 rlineto
          -147 520 hlineto
          hintmask 11101000
          -136 -11 rlineto
          -74 vlineto
          -148 -14 3 -103 89 callsubr
          -318 -165 -118 hlineto
          endchar
        </CharString>
        <CharString name="one.den">
          -210 3 callgsubr
          -210 -20 callsubr
        </CharString>
        <CharString name="one.inf">
          -150 3 callgsubr
          -150 -20 callsubr
        </CharString>
        <CharString name="one.num">
          425 91 159 86.5 hstem
          238 107 vstem
          -86 callgsubr
          endchar
        </CharString>
        <CharString name="one.small">
          0 3 callgsubr
          hmoveto
          -95 callgsubr
          endchar
        </CharString>
        <CharString name="one.sup">
          325 3 callgsubr
          325 -20 callsubr
        </CharString>
        <CharString name="oneeighth">
          10 callgsubr
          75 -33 callsubr
          14 callgsubr
          15 107 -13 105 -104 112 hintmask 1011111001000000
          -83 callgsubr
          hintmask 1011111100010000
          -7 callsubr
          hintmask 1011111010100000
          -69 callgsubr
          vhcurveto
          hintmask 1101111011000000
          15 callsubr
          hintmask 1011111101000000
          -43 callsubr
        </CharString>
        <CharString name="onefifth">
          -222 99 215 93 75 24 callgsubr
          142 96 0 107 -12 104 hintmask 11111010
          439 425 rmoveto
          9 91 rlineto
          -103 318 hlineto
          -107 -9 rlineto
          -58 vlineto
          -106 -11 3 -81 rlineto
          103 -159 -112 -91 hlineto
          -67 -165 -77 callgsubr
        </CharString>
        <CharString name="onehalf">
          -210 66 callsubr
          65 29 callgsubr
          -32 112 hintmask 11111100
          -83 callgsubr
          376 -560 rmoveto
          67 callgsubr
          hintmask 11111010
          -94 callgsubr
          endchar
        </CharString>
        <CharString name="onequarter">
          -142 40 callgsubr
          313.5 29 callgsubr
          -38.5 103 hintmask 11111000
          -83 callgsubr
          hintmask 11110100
          -12 callgsubr
        </CharString>
        <CharString name="onesixth">
          -220 86 99 70 225 24 callgsubr
          103 106 29 107 -3 104 hintmask 11111010
          -83 callgsubr
          hintmask 11111101
          215 -570 -103 callsubr
        </CharString>
        <CharString name="onethird">
          98 callsubr
          75 29 callgsubr
          -15 107 hintmask 11111110
          -83 callgsubr
          72 -572 rmoveto
          hintmask 11111101
          -101 callsubr
        </CharString>
        <CharString name="ordfeminine">
          98 91 55 85 73 72 54 99 hstem
          103 116 102 114 vstem
          265 329 rmoveto
          -30 -16 9 28 29 13 15 89 -8 hvcurveto
          -22 1 -20 1 -16 vhcurveto
          -10 -20 -21 -5 -17 hhcurveto
          72 -78 rmoveto
          106 5 rlineto
          -3 49 -5 63 71 vvcurveto
          140 -58 47 -241 1 vhcurveto
          -10 -99 144 -3 40 -8 8 -43 rlinecurve
          -150 -1 -65 -60 -71 vvcurveto
          -60 51 -38 72 46 33 16 22 26 vhcurveto
          -233 -93 rmoveto
          -91 354 91 vlineto
          endchar
        </CharString>
        <CharString name="ordmasculine">
          98 91 55 92 200 92 hstem
          85 115 148 116 vstem
          85 426 rmoveto
          -118 69 -64 103 114 93 82 121 115 -71 66 -102 -111 -95 -83 -119 vhcurveto
          193 -90 rmoveto
          -51 -27 31 78 62 21 29 50 52 25 -31 -77 -63 -21 -29 -49 hvcurveto
          174 -238 rmoveto
          91 -355 -91 vlineto
          endchar
        </CharString>
        <CharString name="oslash">
          74 callgsubr
          hstemhm
          41 141 188 140 hintmask 10010110
          182 265 -30 callgsubr
          hintmask 10001110
          75 callgsubr
          hintmask 00110110
          38 callgsubr
          hintmask 01010110
          79 -52 34 49 rlineto
          hintmask 10010110
          100 callgsubr
        </CharString>
        <CharString name="oslashacute">
          74 callgsubr
          221 -20 hstemhm
          41 141 188 140 hintmask 10010111
          144 630 -107 callgsubr
          38 -365 -30 callgsubr
          hintmask 10001111
          75 callgsubr
          hintmask 00110111
          38 callgsubr
          hintmask 01010111
          79 -52 34 49 rlineto
          hintmask 10010111
          100 callgsubr
        </CharString>
        <CharString name="otilde">
          2 callgsubr
          55 113 -71 -20 50 113 hstemhm
          41 145 180 144 hintmask 11100110
          352 577 -55 callgsubr
          hintmask 11011110
          54 callgsubr
          hintmask 11010110
          32 callsubr
          hintmask 11011110
          -5 callgsubr
          hintmask 11100110
          54 callsubr
          hintmask 11010110
          -97 -593 -104 callgsubr
        </CharString>
        <CharString name="p">
          75 callsubr
          88 callgsubr
          hstemhm
          68 141 158 141 hintmask 01110011
          256 108 rmoveto
          -19 -14 3 6 -14 hvcurveto
          -1 115 -2 87 -1 64 rrcurveto
          14 21 22 8 21 81 callsubr
          -47 97 callsubr
          132 98 callgsubr
          -54 -44 -26 -34 -32 hvcurveto
          hintmask 01101011
          -6 49 rlineto
          hintmask 10100111
          -130 -7 rlineto
          5 -95 1 -134 -278 vvcurveto
          -171 vlineto
          endchar
        </CharString>
        <CharString name="paragraph">
          80 111 311 130 hstemhm
          37 127 42 113 -85.5 81.5 61 115 hintmask 11101100
          376 191 rmoveto
          -22 -20 3 3 -19 hvcurveto
          308 vlineto
          18 1 21 -1 22 -3 rrcurveto
          -212 -146 rmoveto
          54 18 50 51 26 vhcurveto
          1 -257 rlineto
          -46 30 -24 45 52 vvcurveto
          hintmask 11110100
          155 -461 rmoveto
          187 vlineto
          -1 18 19 -1 20 hhcurveto
          -176 vlineto
          115 12 rlineto
          716 vlineto
          -306 1 -148 -115 -182 vvcurveto
          -106 58 -83 111 -41 vhcurveto
          -223 vlineto
          endchar
        </CharString>
        <CharString name="parenleft">
          -210 945 hstem
          93 69 callgsubr
          383 735 -10 callgsubr
        </CharString>
        <CharString name="parenleft.cap">
          -144 -21 hstem
          93 69 callgsubr
          383 780 -10 callgsubr
        </CharString>
        <CharString name="parenright">
          -210 945 96 callsubr
          -210 -11 callsubr
        </CharString>
        <CharString name="parenright.cap">
          -144 -21 96 callsubr
          -165 -11 callsubr
        </CharString>
        <CharString name="percent">
          7 -21 648 -20 hstem
          31 204 80 204 vstem
          114 -14 rmoveto
          408 592 -86 56 -408 -592 rlineto
          3 449 rmoveto
          99 callgsubr
          95 callsubr
          vhcurveto
          488 -363 rmoveto
          95 callsubr
          99 callgsubr
          vhcurveto
          endchar
        </CharString>
        <CharString name="period">
          0 165 hstem
          172.5 83 callsubr
          vstem
          355 hmoveto
          8 165 rlineto
          -186 hlineto
          -9 -165 rlineto
          endchar
        </CharString>
        <CharString name="periodcentered">
          217 165 hstem
          181.5 187 vstem
          368 217 rmoveto
          1 43 callgsubr
          -1 -165 rlineto
          endchar
        </CharString>
        <CharString name="peso">
          0 270 -249 -21 331 113 -104 100 76 114 -10 -20 hstemhm
          85 129 hintmask 01011010
          214 440 rmoveto
          76 vlineto
          75 7 47 -26 17 -57 rrcurveto
          hintmask 10011010
          -139 -166 rmoveto
          66 141 vlineto
          -14 -63 -49 -15 -78 12 rrcurveto
          hintmask 01100110
          324 57 rmoveto
          113 -53 vlineto
          -16 149 -135 64 -249 -37 rrcurveto
          -176 -59 -113 59 -331 129 154 vlineto
          130 18 99 53 32 106 rrcurveto
          endchar
        </CharString>
        <CharString name="plus">
          243 94 callgsubr
          497 243 rmoveto
          119 -158 168 -127 -168 -159 -119 159 -169 127 169 vlineto
          endchar
        </CharString>
        <CharString name="plusminus">
          35 119 138 94 callgsubr
          491 35 rmoveto
          119 -152 138 152 119 -152 161 -127 -161 -153 -119 153 -138 -153 -119 vlineto
          endchar
        </CharString>
        <CharString name="published">
          7 71 81 296 87 71 hstem
          31 76 81 82 173 96 callgsubr
          91 -112 143 68 callsubr
          -141 -98 85 callgsubr
          60 79 101 85 callsubr
          -98 -63 81 151 vhcurveto
          163 -151 rmoveto
          71 vlineto
          69 17 49 44 61 vvcurveto
          78 -64 39 -136 -18 vhcurveto
          -292 vlineto
          endchar
        </CharString>
        <CharString name="q">
          72 callgsubr
          149 116 297 122 hstemhm
          42 141 159 142 hintmask 10111100
          342 -176 rmoveto
          hintmask 01111100
          142 12 rlineto
          656 vlineto
          19 -48 -49 9 -58 hhcurveto
          -153 -134 -111 -185 -146 74 -93 107 49 39 21 28 31 hvcurveto
          -61 67 rmoveto
          -60 -38 51 107 95 34 44 59 22 21 -4 -7 23 hvcurveto
          -267 vlineto
          -12 -19 -19 -7 -23 hhcurveto
          endchar
        </CharString>
        <CharString name="question">
          0 150 397 133 hstemhm
          151 171.5 15.5 154 hintmask 11100000
          80 547 rmoveto
          hintmask 11110000
          222 -17 36 -22 -30 vvcurveto
          -48 -140 -38 -6 -147 vhcurveto
          102 -3 rlineto
          13 127 185 33 114 vvcurveto
          83 -87 68 -311 13 vhcurveto
          hintmask 11100000
          227 -680 rmoveto
          3 150 rlineto
          -171 hlineto
          -4 -150 rlineto
          endchar
        </CharString>
        <CharString name="questiondown">
          470 150 hstemhm
          58 155 15 171 hintmask 10100000
          230 620 rmoveto
          -4 -150 rlineto
          171 hlineto
          4 150 rlineto
          70 -547 rmoveto
          hintmask 11100000
          -223 17 -35 22 30 vvcurveto
          48 140 38 6 147 vhcurveto
          -102 3 rlineto
          -14 -127 -185 -33 -114 vvcurveto
          -83 87 -68 311 -13 vhcurveto
          endchar
        </CharString>
        <CharString name="quotedbl">
          372 306 hstem
          98.5 154.5 74.5 154 vstem
          430 372 rmoveto
          53 256 -3 50 rlineto
          -155 hlineto
          5 -306 rlineto
          -129 hmoveto
          53 256 -2 50 rlineto
          -156 hlineto
          5 -306 rlineto
          endchar
        </CharString>
        <CharString name="quotedblbase">
          -159 335 hstem
          96 150 223 11 vstem
          69 -138 rmoveto
          70 -21 84 82 49 148 -40 105 rlinecurve
          -166 -7 40 -97 -2 -139 -35 -71 rlinecurve
          225 1 rmoveto
          69 -21 88 78 53 148 -35 108 rlinecurve
          -166 -6 35 -96 -4 -140 -40 -71 rlinecurve
          endchar
        </CharString>
        <CharString name="quotedblleft">
          358 334 hstem
          71 153 80 150 vstem
          481 672 rmoveto
          -70 20 -83 -81 -50 -148 40 -105 rlinecurve
          166 7 -40 97 2 139 35 71 rlinecurve
          -225 -1 rmoveto
          -69 21 -87 -79 -54 -147 36 -108 rlinecurve
          166 6 -36 96 4 140 40 71 rlinecurve
          endchar
        </CharString>
        <CharString name="quotedblright">
          348 335 hstem
          101 150 225 11 vstem
          73 369 rmoveto
          71 -21 83 82 51 148 -41 105 rlinecurve
          -166 -7 41 -97 -3 -139 -36 -71 rlinecurve
          228 1 rmoveto
          69 -21 87 78 55 148 -36 108 rlinecurve
          -167 -6 37 -96 -5 -140 -40 -71 rlinecurve
          endchar
        </CharString>
        <CharString name="quoteleft">
          358 334 hstem
          182 160 vstem
          385 671 rmoveto
          -76 21 -88 -76 -75 -148 54 -110 rlinecurve
          174 7 -51 101 13 137 49 68 rlinecurve
          endchar
        </CharString>
        <CharString name="quoteright">
          349 335 hstem
          219 160 vstem
          176 371 rmoveto
          76 -22 88 76 74 148 -53 111 rlinecurve
          -174 -7 50 -102 -12 -137 -49 -67 rlinecurve
          endchar
        </CharString>
        <CharString name="quotesinglbase">
          -158 334 hstem
          210 159 vstem
          167 -137 rmoveto
          76 -21 88 80 74 147 -55 107 rlinecurve
          -171 -7 49 -96 -11 -139 -50 -71 rlinecurve
          endchar
        </CharString>
        <CharString name="quotesingle">
          372 306 hstem
          215.5 164 vstem
          316 372 rmoveto
          65 256 -3 50 rlineto
          -164 hlineto
          3 -306 rlineto
          endchar
        </CharString>
        <CharString name="r">
          63 callgsubr
          hstemhm
          177 140 -31 callsubr
          endchar
        </CharString>
        <CharString name="racute">
          63 callgsubr
          195 93 callsubr
          166 631 -107 callgsubr
          277 -631 -29 callgsubr
        </CharString>
        <CharString name="rcaron">
          63 callgsubr
          209 93 callsubr
          311 563 -99 callsubr
          142 -563 -29 callgsubr
        </CharString>
        <CharString name="rcommaaccent">
          63 callgsubr
          hstemhm
          177 140 -129 154 -31 callsubr
          hintmask 11001000
          109 -56 callsubr
        </CharString>
        <CharString name="registered">
          179 66 150 152 72 66 hstem
          23 71 87 75 199 72 vstem
          527 439 rmoveto
          151 -107 97 -144 -2 vhcurveto
          -150 -2 -103 -104 -154 vvcurveto
          -151 98 -95 151 144 111 106 154 vhcurveto
          -72 -7 rmoveto
          -119 -73 -68 -108 -107 -73 68 119 118 73 69 107 108 73 -69 -118 vhcurveto
          -140 -116 rmoveto
          82 7 -61 88 rlineto
          25 19 18 25 24 vvcurveto
          36 -36 47 -162 -20 vhcurveto
          -223 75 76 11 vlineto
          endchar
        </CharString>
        <CharString name="registered.alt">
          7 71 164.5 214.5 85 71 hstem
          31 76 71 82 183 96 callgsubr
          93 -112 141 68 callsubr
          -139 -100 85 callgsubr
          62 79 99 85 callsubr
          -96 -65 81 151 vhcurveto
          196 -154 rmoveto
          87 9 -46 119 rlineto
          20 24 14 29 28 vvcurveto
          48 -36 65 -164 -27 vhcurveto
          -292 82 83 vlineto
          19 1 rlineto
          endchar
        </CharString>
        <CharString name="ring">
          555 222 hstem
          146 273 vstem
          282 777 -63 callsubr
          endchar
        </CharString>
        <CharString name="ruble">
          0 196 -97 97 53 102 -97 98 161 114 -7 -20 hstemhm
          102 136 143 135 hintmask 01011011
          381 435 rmoveto
          -64 -37 -17 -106 -2 vhcurveto
          161 vlineto
          97 5 46 -25 -58 vvcurveto
          30 -336 rmoveto
          hintmask 10010111
          10 97 rlineto
          -183 58 hlineto
          177 15 101 59 123 vvcurveto
          146 -140 51 -274 -28 vhcurveto
          hintmask 01101011
          -269 -62 -102 62 -48 -62 -102 62 vlineto
          hintmask 10101011
          -99 136 vlineto
          hintmask 01101011
          99 vlineto
          endchar
        </CharString>
        <CharString name="rupee">
          -10 111 -85 67 callsubr
          31 -21 396 110 103 73 callgsubr
          hstemhm
          47 102.5 179.5 111 -12 116 hintmask 0100101100000000
          211 -5 rmoveto
          hintmask 0001110100000000
          111 15 -68 264 rlineto
          33 44 22 58 66 92 callgsubr
          hintmask 0010101110000000
          -619 106 vlineto
          -7 203 21 1 rlineto
          362 312 rmoveto
          -136 8 -64 -69 -78 vvcurveto
          hintmask 1000101101000000
          -102 99 -81 -58 vvcurveto
          -25 -24 -12 -67 2 vhcurveto
          7 -111 rlineto
          151 -5 49 72 73 vvcurveto
          hintmask 0001101110000000
          100 -104 95 51 vvcurveto
          24 21 11 72 -5 vhcurveto
          endchar
        </CharString>
        <CharString name="rupeeindia">
          1 -21 346 95 80 119 -116 -20 hstemhm
          68 425 hintmask 11101000
          493 60 rmoveto
          -126 85 -66 42 -63 23 84 25 55 43 22 48 rrcurveto
          75 95 -67 hlineto
          -9 32 -18 27 -30 21 rrcurveto
          126 hlineto
          8 119 rlineto
          -399 hlineto
          hintmask 11011000
          -8 -116 121 -13 53 -29 20 -41 rlinecurve
          -192 -95 192 hlineto
          -19 -41 -52 -27 -111 -4 -21 -102 rcurveline
          123 -33 36 -23 162 -116 rrcurveto
          endchar
        </CharString>
        <CharString name="s">
          46 callsubr
          449 513 -19 callsubr
        </CharString>
        <CharString name="sacute">
          46 callsubr
          149 -66 callgsubr
          300 -109 -19 callsubr
        </CharString>
        <CharString name="scaron">
          22 callsubr
          194 -20 88 callsubr
          111 149 hintmask 10111100
          294 -35 callsubr
          165 -41 -61 callgsubr
          hintmask 11011100
          -17 callsubr
          endchar
        </CharString>
        <CharString name="scedilla">
          -7 117 -87 -21 390 121 -115 115 88 callsubr
          48 128 -65 149 hintmask 10011010
          178 -239 rmoveto
          hintmask 01011100
          42 callsubr
          38 -30 42 -88 40 vhcurveto
          hintmask 01101010
          149 22 53 59 69 -17 callsubr
          hintmask 10011010
          -5 121 rlineto
          -57 callgsubr
          hintmask 10011100
          43 -1 39 0 35 57 callgsubr
        </CharString>
        <CharString name="schwa">
          -14 115 103 83 114 117 hstem
          51 140 171 69 callgsubr
          248 -14 rmoveto
          135 119 120 158 165 -85 98 -338 -9 hvcurveto
          -13 -117 202 -3 75 -23 16 -84 rlinecurve
          -305 -8 rlineto
          -185 -18 67 -112 145 hhcurveto
          26 115 rmoveto
          -57 -23 37 66 -3 hvcurveto
          52 1 73 3 46 1 rrcurveto
          -80 -5 -29 -28 -54 hhcurveto
          endchar
        </CharString>
        <CharString name="scommaaccent">
          26 callgsubr
          -24 154 -19 149 hintmask 10110100
          449 513 -61 callgsubr
          hintmask 11010100
          -17 callsubr
          hintmask 10101000
          -268 -669 -96 callsubr
        </CharString>
        <CharString name="section">
          -114 116 512 116 hstemhm
          42 126 -85 146 92 147 -86 126 hintmask 11100100
          168 264 rmoveto
          21 31 21 45 16 vhcurveto
          70 -25 68 -17 -27 vvcurveto
          -22 -31 -21 -44 -15 vhcurveto
          -71 25 -68 17 27 vvcurveto
          hintmask 11011000
          300 -203 rmoveto
          43 -32 31 -44 24 vhcurveto
          hintmask 11010100
          65 29 51 43 56 116 -279 19 46 vvcurveto
          20 43 38 193 -15 vhcurveto
          -6 119 rlineto
          -279 13 -97 -108 -80 vvcurveto
          -43 32 -31 43 -23 vhcurveto
          hintmask 11101000
          -65 -29 -51 -42 -56 -116 279 -22 -45 vvcurveto
          -20 -44 -38 -192 15 vhcurveto
          -4 -119 rlineto
          hintmask 11011000
          290 -13 97 108 80 vvcurveto
          endchar
        </CharString>
        <CharString name="semicolon">
          312 165 hstemhm
          188.5 187 -162.5 162 hintmask 11000000
          374 312 rmoveto
          3 43 callgsubr
          -3 -165 rlineto
          hintmask 10100000
          -17 -448 rmoveto
          76 -22 88 76 77 144 -53 112 rlinecurve
          -176 -7 50 -100 -13 -136 -49 -67 rlinecurve
          endchar
        </CharString>
        <CharString name="servicemark">
          280 74 194 72 -72 74 hstemhm
          28 81 33 82 31 78 110 80 hintmask 10100110
          377 344 82 callsubr
          hlineto
          hintmask 11001110
          339 -79 vlineto
          56 callsubr
          -308 -123 rmoveto
          -74 vlineto
          143 -5 54 57 54 vvcurveto
          hintmask 10111110
          76 -115 26 37 vvcurveto
          23 29 6 72 -6 vhcurveto
          -3 74 rlineto
          -133 8 -46 -65 -47 -74 114 -25 -35 vvcurveto
          hintmask 11001110
          -24 -36 -12 -79 6 vhcurveto
          endchar
        </CharString>
        <CharString name="seven">
          12 -21 36 -21 488 126 hstemhm
          69 429 hintmask 10110000
          265 -9 rmoveto
          57 170 79 174 97 163 rrcurveto
          122 -419 vlineto
          -10 -126 rlineto
          286 hlineto
          3 -6 rlineto
          hintmask 01110000
          -98 -158 -81 -160 -57 -164 rrcurveto
          endchar
        </CharString>
        <CharString name="seven.den">
          90 65 callsubr
          -218 -67 callsubr
          endchar
        </CharString>
        <CharString name="seven.inf">
          150 65 callsubr
          -158 -67 callsubr
          endchar
        </CharString>
        <CharString name="seven.num">
          725 65 callsubr
          417 -67 callsubr
          endchar
        </CharString>
        <CharString name="seven.small">
          13 -21 32 -21 297 95 hstemhm
          117 328 hintmask 10110000
          273 -8 -61 callsubr
          rlineto
          hintmask 01110000
          -74 -97 -56 -94 -45 -101 rrcurveto
          endchar
        </CharString>
        <CharString name="seven.sup">
          625 65 callsubr
          317 -67 callsubr
          endchar
        </CharString>
        <CharString name="seveneighths">
          10 callgsubr
          375 95 -21 callsubr
          hintmask 1011110101000000
          273 417 -67 callsubr
          -98 -168 -47 callsubr
          hintmask 1011111001000000
          -7 callsubr
          hintmask 1011110110000000
          -69 callgsubr
          vhcurveto
          hintmask 1101110101000000
          15 callsubr
          hintmask 1011111001000000
          23 callgsubr
          hintmask 1011110110000000
          -89 callsubr
          hintmask 1011111001000000
          -91 callsubr
        </CharString>
        <CharString name="six">
          -14 110 189 95 262 -20 hstem
          53 132 183 131 vstem
          273 -14 rmoveto
          121 105 82 134 159 -160 66 -140 -82 hvcurveto
          25 69 64 54 150 57 -58 117 rcurveline
          -227 -98 -100 -138 -174 vvcurveto
          -160 88 -86 132 vhcurveto
          13 110 rmoveto
          -56 -45 44 106 hvcurveto
          6 0 6 5 vvcurveto
          109 48 74 -34 -87 vvcurveto
          -63 -33 -31 -49 vhcurveto
          endchar
        </CharString>
        <CharString name="six.den">
          -220 16 callgsubr
          -220 -103 callsubr
        </CharString>
        <CharString name="six.inf">
          -160 16 callgsubr
          -160 -103 callsubr
        </CharString>
        <CharString name="six.num">
          415 86 99 37 19 callgsubr
          415 -103 callsubr
        </CharString>
        <CharString name="six.small">
          -10 16 callgsubr
          -10 -103 callsubr
        </CharString>
        <CharString name="six.sup">
          315 16 callgsubr
          315 -103 callsubr
        </CharString>
        <CharString name="slash">
          -212 967 hstem
          -7 573 vstem
          444 755 rmoveto
          -451 -909 122 -58 451 909 rlineto
          endchar
        </CharString>
        <CharString name="space">
          endchar
        </CharString>
        <CharString name="sterling">
          0 118 136 103 137 141 hstem
          57 432 vstem
          482 119 rmoveto
          -233 -2 16 137 rlineto
          152 hlineto
          10 103 rlineto
          -149 hlineto
          17 132 23 7 171 -2 -7 141 rcurveline
          -256 -12 -64 -76 -23 -190 rrcurveto
          -68 hlineto
          -10 -103 rlineto
          67 hlineto
          -13 -138 rlineto
          -58 -116 425 hlineto
          endchar
        </CharString>
        <CharString name="t">
          66 callgsubr
          hstem
          154 141 vstem
          466 -7 -56 callgsubr
          endchar
        </CharString>
        <CharString name="tcaron">
          66 callgsubr
          hstem
          154 141 69 69 callgsubr
          355 597 -46 callgsubr
          111 -604 -56 callgsubr
          endchar
        </CharString>
        <CharString name="tcommaaccent">
          66 callgsubr
          hstemhm
          154 141 -52 154 hintmask 11110000
          466 -7 -56 callgsubr
          hintmask 11101000
          -237 -56 callsubr
        </CharString>
        <CharString name="thorn">
          75 callsubr
          59 callgsubr
          65 143 156 141 hintmask 01110111
          253 108 rmoveto
          -18 -13 3 5 -14 hvcurveto
          271 vlineto
          12 19 20 6 19 81 callsubr
          -45 97 callsubr
          130 98 callgsubr
          -47 -40 -20 -27 -30 hvcurveto
          242 vlineto
          hintmask 10111011
          -143 -12 rlineto
          -879 vlineto
          endchar
        </CharString>
        <CharString name="three">
          -14 128 -107 -21 512 122 hstemhm
          347 137 hintmask 01110000
          88 -14 rmoveto
          276 14 120 82 109 vvcurveto
          69 -57 61 -148 31 vhcurveto
          189 146 -10 122 rlineto
          -368 -122 234 hlineto
          -200 -156 rlineto
          -62 vlineto
          hintmask 10110000
          163 -21 60 -41 -36 vvcurveto
          -38 -58 -17 -210 -13 vhcurveto
          endchar
        </CharString>
        <CharString name="three.den">
          -222 97 156 -21 83 32 callgsubr
          -222 rmoveto
          -101 callsubr
        </CharString>
        <CharString name="three.inf">
          -162 51 callgsubr
          -162 rmoveto
          -101 callsubr
        </CharString>
        <CharString name="three.num">
          413 97 132 -20 106 32 callgsubr
          413 rmoveto
          -101 callsubr
        </CharString>
        <CharString name="three.small">
          -12 51 callgsubr
          -12 rmoveto
          -101 callsubr
        </CharString>
        <CharString name="three.sup">
          313 51 callgsubr
          313 rmoveto
          -101 callsubr
        </CharString>
        <CharString name="threeeighths">
          10 callgsubr
          63 87 callsubr
          14 callgsubr
          107 107 -104 112 hintmask 1011111101100000
          100 callsubr
          -75 callsubr
          hintmask 1011111110010000
          -7 callsubr
          hintmask 1011111101100000
          -69 callgsubr
          vhcurveto
          hintmask 1101111101100000
          15 callsubr
          hintmask 1011111110100000
          14 callsubr
          hintmask 1011111110010000
          33 callsubr
          hintmask 1011111101100000
          -89 callsubr
          hintmask 1011111110010000
          -91 callsubr
        </CharString>
        <CharString name="threefifths">
          52 callsubr
          63 87 callsubr
          hstemhm
          142 96 92 107 -104 104 hintmask 1111111010000000
          100 callsubr
          hintmask 1111111100000000
          -75 callsubr
          hintmask 1111111010000000
          -85 callsubr
        </CharString>
        <CharString name="threequarters">
          -142 40 callgsubr
          313.5 90 63 87 callsubr
          hstemhm
          44 callsubr
          -79.5 107 hintmask 11111100
          100 callsubr
          hintmask 11111010
          -75 callsubr
          hintmask 11111100
          -12 callgsubr
        </CharString>
        <CharString name="tilde">
          569 102 callgsubr
          -41 -20 hstemhm
          62 429 hintmask 10110000
          344 569 -55 callgsubr
          hintmask 01010000
          -25 callgsubr
          hintmask 10110000
          54 callsubr
          endchar
        </CharString>
        <CharString name="trademark">
          551 69 hstem
          90 78 87 78 110 80 vstem
          168 551 rmoveto
          64 69 -215 hlineto
          -3 -69 rlineto
          76 -270 78 hlineto
          209 63 82 callsubr
          339 -79 hlineto
          56 callsubr
          endchar
        </CharString>
        <CharString name="two">
          0 121 376 131 hstem
          332 141 vstem
          485 hmoveto
          121 -249 vlineto
          147 112 90 84 123 vvcurveto
          104 -87 87 -292 -3 vhcurveto
          -12 -131 rlineto
          193 -5 57 -26 -65 vvcurveto
          -81 -95 -82 -174 -127 vhcurveto
          14 -111 rlineto
          endchar
        </CharString>
        <CharString name="two.den">
          -210 0 callsubr
          -210 rmoveto
          -82 callgsubr
        </CharString>
        <CharString name="two.inf">
          -150 0 callsubr
          -150 rmoveto
          -82 callgsubr
        </CharString>
        <CharString name="two.num">
          425 0 callsubr
          425 rmoveto
          -82 callgsubr
        </CharString>
        <CharString name="two.small">
          0 0 callsubr
          hmoveto
          -82 callgsubr
        </CharString>
        <CharString name="two.sup">
          325 0 callsubr
          325 rmoveto
          -82 callgsubr
        </CharString>
        <CharString name="twofifths">
          52 callsubr
          75 66 callsubr
          hstemhm
          142 96 75 112 -92 104 hintmask 11111101
          91 callsubr
          hintmask 11111110
          -94 callgsubr
          -62 -165 -77 callgsubr
        </CharString>
        <CharString name="twothirds">
          98 callsubr
          75 90 75 66 callsubr
          hstemhm
          313 112 -95 107 hintmask 11111110
          435 425 rmoveto
          -41 callgsubr
          -62 6 callgsubr
          72 -572 rmoveto
          hintmask 11111101
          -101 callsubr
        </CharString>
        <CharString name="u">
          -1 callgsubr
          hintmask 01000111
          362 -3 -79 callsubr
        </CharString>
        <CharString name="uacute">
          -1 callgsubr
          hintmask 00100111
          146 626 -107 callgsubr
          hintmask 01000111
          216 -629 -79 callsubr
        </CharString>
        <CharString name="ubreve">
          -62 callgsubr
          78 112 4 callsubr
          282 568 -103 callgsubr
          hintmask 0100011110000000
          80 -571 -100 callsubr
        </CharString>
        <CharString name="ucircumflex">
          -62 callgsubr
          141 -20 4 callsubr
          387 565 -98 callgsubr
          hintmask 0100011110000000
          97 -660 -100 callsubr
        </CharString>
        <CharString name="udieresis">
          -62 callgsubr
          90 36 callgsubr
          60 142 -106.5 -40 callsubr
          -121 142 hintmask 0010011011000000
          462 580 -100 callgsubr
          hintmask 0100011100100000
          268 -583 rmoveto
          hintmask 0010101100100000
          -73 callgsubr
          hintmask 1000011100100000
          -86 callsubr
          hintmask 1001001100100000
          -82 callsubr
        </CharString>
        <CharString name="ugrave">
          -62 callgsubr
          134 -20 4 callsubr
          403 624 -99 callgsubr
          hintmask 0100011110000000
          -3 -566 -100 callsubr
        </CharString>
        <CharString name="uhungarumlaut">
          -1 callgsubr
          hintmask 00100111
          104 612 -87 callgsubr
          hintmask 01000111
          45 -613 -79 callsubr
        </CharString>
        <CharString name="umacron">
          -62 callgsubr
          102 121 4 callsubr
          458 713 -31 callgsubr
          hintmask 0100011110000000
          -96 -595 -100 callsubr
        </CharString>
        <CharString name="underscore">
          -165 115 hstem
          30 490 vstem
          520 -50 rmoveto
          -490 -115 490 hlineto
          endchar
        </CharString>
        <CharString name="underscore.alt">
          -165 115 hstem
          -10 570 vstem
          560 -50 rmoveto
          -570 -115 570 hlineto
          endchar
        </CharString>
        <CharString name="uni00A0">
          endchar
        </CharString>
        <CharString name="uogonek">
          -229 110 105 121 -82 67 callsubr
          493 -20 24 73 callgsubr
          hstemhm
          60 142 45 135 -39 142 hintmask 1010001110000000
          472 -229 rmoveto
          -7 callgsubr
          hintmask 1100010101000000
          -66 callsubr
          -142 1 -123 2 -94 vhcurveto
          -25 -23 -24 -15 -29 hhcurveto
          -41 -27 23 82 hvcurveto
          hintmask 1001001101000000
          298 vlineto
          hintmask 1100100101000000
          -59 callgsubr
          60 52 40 46 40 vhcurveto
          hintmask 1001001101000000
          8 -63 rlineto
          hintmask 1001001110000000
          -78 -45 -35 -42 -41 vvcurveto
          hintmask 1010001110000000
          17 callgsubr
          endchar
        </CharString>
        <CharString name="uring">
          -62 callgsubr
          69 222 4 callsubr
          277 781 -63 callsubr
          hintmask 0100011110000000
          85 -784 -100 callsubr
        </CharString>
        <CharString name="v">
          -4 145 365 -20 25 -20 hstemhm
          25 502 hintmask 10110000
          282 141 rmoveto
          -8 hlineto
          -38 122 -36 128 -33 120 -142 -10 rcurveline
          48 -166 58 -172 59 -167 rrcurveto
          169 hlineto
          hintmask 11010000
          59 167 61 176 48 167 rrcurveto
          -143 hlineto
          hintmask 10110000
          -31 -119 -34 -125 -37 -121 rrcurveto
          endchar
        </CharString>
        <CharString name="w">
          37 callgsubr
          338 hmoveto
          -48 callsubr
        </CharString>
        <CharString name="wacute">
          37 callgsubr
          143 -66 callgsubr
          195 -622 rmoveto
          -48 callsubr
        </CharString>
        <CharString name="wcircumflex">
          -9 callgsubr
          141 80 callsubr
          384 561 -98 callgsubr
          76 -653 -48 callgsubr
        </CharString>
        <CharString name="wdieresis">
          -9 callgsubr
          90 145 89 callgsubr
          -87.5 -40 callsubr
          -82 132 hintmask 0011110100000000
          459 576 rmoveto
          4 -96 callgsubr
          hintmask 0011101010000000
          -84 callgsubr
          247 -576 18 callsubr
          hintmask 1001110010000000
          -41 callsubr
          hintmask 0101110100000000
          -83 callsubr
        </CharString>
        <CharString name="wgrave">
          -9 callgsubr
          134 80 callsubr
          400 620 -99 callgsubr
          -24 -559 -48 callgsubr
        </CharString>
        <CharString name="x">
          19 -21 23 -21 24 -21 503 -20 23 -20 hstemhm
          20 511 hintmask 10001100
          369 -2 rmoveto
          hintmask 00110100
          162 5 -163 251 161 252 rlineto
          -150 hlineto
          -97 -168 rlineto
          hintmask 01001100
          -102 171 -160 -6 162 -250 -161 -253 rlineto
          150 hlineto
          97 167 rlineto
          endchar
        </CharString>
        <CharString name="y">
          69 callsubr
          71 -177 -36 callgsubr
        </CharString>
        <CharString name="yacute">
          69 callsubr
          149 627 -107 callgsubr
          -78 -804 -36 callgsubr
        </CharString>
        <CharString name="ycircumflex">
          31 callsubr
          141 -20 hstemhm
          23 501 hintmask 10111000
          390 566 -98 callgsubr
          -197 -835 -37 callsubr
        </CharString>
        <CharString name="ydieresis">
          31 callsubr
          90 36 callgsubr
          98.5 -40 callsubr
          hintmask 10111100
          465 581 -100 callgsubr
          -26 -758 12 callsubr
          hintmask 11011100
          -39 callgsubr
          hintmask 10111100
          -75 callgsubr
        </CharString>
        <CharString name="yen">
          0 223 -99 99 56 99 242 -20 23 -20 hstemhm
          203.5 138 hintmask 01101100
          494 124 rmoveto
          hintmask 10110100
          1 99 rlineto
          -152 hlineto
          25 56 rlineto
          127 99 -81 hlineto
          110 242 rlineto
          -142 hlineto
          -104 -276 rlineto
          hintmask 10101100
          -109 279 -149 -6 111 -239 rlineto
          -80 -99 126 hlineto
          26 -56 rlineto
          -152 hlineto
          hintmask 01101100
          -1 -99 rlineto
          154 hlineto
          hintmask 10101100
          -1 -124 rlineto
          139 hlineto
          hintmask 01101100
          -1 124 rlineto
          endchar
        </CharString>
        <CharString name="ygrave">
          31 callsubr
          134 -20 hstemhm
          23 501 hintmask 10111000
          406 625 -99 callgsubr
          -297 -741 -37 callsubr
        </CharString>
        <CharString name="z">
          8 callgsubr
          101 callsubr
          484 hmoveto
          -58 callgsubr
        </CharString>
        <CharString name="zacute">
          8 callgsubr
          101 callsubr
          138 -66 callgsubr
          346 -622 rmoveto
          -58 callgsubr
        </CharString>
        <CharString name="zcaron">
          8 callgsubr
          201 -20 101 callsubr
          283 -35 callsubr
          211 -554 rmoveto
          -58 callgsubr
        </CharString>
        <CharString name="zdotaccent">
          8 callgsubr
          70 145 hstem
          72 callsubr
          vstem
          348 576 -60 callsubr
          284 -576 rmoveto
          -58 callgsubr
        </CharString>
        <CharString name="zero">
          -14 callsubr
          -91 338 rmoveto
          126 30 70 67 47 30 -42 -69 14 vhcurveto
          -188 -97 rlineto
          3 0 5 4 vvcurveto
          101 -224 rmoveto
          -46 -30 40 67 -14 hvcurveto
          187 96 rlineto
          -2 0 -2 -3 vvcurveto
          -126 -30 -70 -67 vhcurveto
          endchar
        </CharString>
        <CharString name="zero.alt">
          -14 callsubr
          6 534 rmoveto
          69 32 -90 -134 -126 -30 -70 -67 -69 -32 90 134 126 30 70 67 hvcurveto
          endchar
        </CharString>
        <CharString name="zero.den">
          -220 -24 callsubr
          -220 -90 callsubr
        </CharString>
        <CharString name="zero.inf">
          -160 -24 callsubr
          -160 -90 callsubr
        </CharString>
        <CharString name="zero.num">
          415 -24 callsubr
          415 -90 callsubr
        </CharString>
        <CharString name="zero.small">
          -10 -24 callsubr
          -10 -90 callsubr
        </CharString>
        <CharString name="zero.sup">
          315 -24 callsubr
          315 -90 callsubr
        </CharString>
      <CharString index="0">
        rmoveto
        34 -62 77 21 134 58 73 54 rlinecurve
        -100 105 -59 -61 -101 -79 -58 -36 rlinecurve
        return
      </CharString>
      <CharString index="1">
        -93 callsubr
        hintmask 01011111
        104 -98 rmoveto
        hintmask 00111111
        -102 callgsubr
        hintmask 10011111
        -55 callsubr
      </CharString>
      <CharString index="2">
        225 3 81 59 68 vvcurveto
        45 -42 37 -109 20 vhcurveto
        140 89 -8 86 rlineto
        -286 -93 hlineto
        165 2 rlineto
        -4 vlineto
        -134 -83 rlineto
        -54 vlineto
        114 -10 53 -16 -19 vvcurveto
        -20 -47 -9 -160 -4 vhcurveto
        return
      </CharString>
      <CharString index="3">
        -44 callgsubr
        166 -87 89 -127 -32 callgsubr
        -166 87 -89 127 hvcurveto
        26 114 rmoveto
        -61 -34 54 113 98 32 45 53 60 35 -54 -112 -99 -32 -45 -53 hvcurveto
        endchar
      </CharString>
      <CharString index="4">
        rmoveto
        78 74 61 97 56 hvcurveto
        -79 41 rlineto
        -56 -38 -34 -31 -44 hhcurveto
        -44 -33 28 64 -42 hvcurveto
        -97 -57 rlineto
        -97 52 73 -50 78 hhcurveto
        return
      </CharString>
      <CharString index="5">
        131 7 rlineto
        -102 callsubr
        return
      </CharString>
      <CharString index="6">
        rmoveto
        138 87 68 callgsubr
        hvcurveto
        -53 callsubr
        -47 -29 31 74 vhcurveto
        405 -147 -407 vlineto
        -146 80 -83 134 vhcurveto
        endchar
      </CharString>
      <CharString index="7">
        rmoveto
        4 -96 callgsubr
        -84 callgsubr
        return
      </CharString>
      <CharString index="8">
        rmoveto
        -54 39 -110 86 -62 55 -91 -113 rcurveline
        78 -47 126 -56 75 -25 rrcurveto
        return
      </CharString>
      <CharString index="9">
        rmoveto
        86 82 -192 137 rlineto
        -10 hlineto
        -187 -153 66 -65 115 91 rlineto
        return
      </CharString>
      <CharString index="10">
        rmoveto
        hintmask 00111110
        -79 callgsubr
        hintmask 01011110
        -94 callsubr
        hintmask 10011110
        -11 callgsubr
        hintmask 00111110
        -93 callgsubr
      </CharString>
      <CharString index="11">
        -2 callgsubr
        -144 hlineto
        -3 -145 rlineto
        return
      </CharString>
      <CharString index="12">
        9 91 rlineto
        -103 318 hlineto
        -107 -9 rlineto
        -58 vlineto
        -106 -11 3 -81 rlineto
        103 -159 -112 -91 hlineto
        return
      </CharString>
      <CharString index="13">
        105 66 57 56 66 vvcurveto
        69 -68 55 -224 vhcurveto
        -8 -97 89 callsubr
        -6 43 -15 -36 vvcurveto
        -45 -71 -47 -132 -74 vhcurveto
        11 -85 rlineto
        return
      </CharString>
      <CharString index="14">
        -115 84 callgsubr
        9 hlineto
        -49 callgsubr
        -35 callgsubr
      </CharString>
      <CharString index="15">
        rmoveto
        -95 callgsubr
        return
      </CharString>
      <CharString index="16">
        -74 callsubr
        -4 callsubr
        rlinecurve
        194 2 -3 callgsubr
        return
      </CharString>
      <CharString index="17">
        -8 -423 rlineto
        -4 hlineto
        -23 92 -14 52 -25 91 rrcurveto
        -73 hlineto
        -23 -91 -10 -51 -22 -93 rrcurveto
        -4 hlineto
        -15 423 rlineto
        -141 hlineto
        13 -267 19 -236 13 -117 rrcurveto
        133 hlineto
        67 267 rlineto
        endchar
      </CharString>
      <CharString index="18">
        736 -107 callgsubr
        return
      </CharString>
      <CharString index="19">
        rmoveto
        57 23 -37 -66 3 hvcurveto
        -52 -1 -73 -3 -46 -1 rrcurveto
        80 5 29 28 54 hhcurveto
        endchar
      </CharString>
      <CharString index="20">
        rmoveto
        67 -41 59 51 67 74 41 59 rlinecurve
        -132 61 -22 -59 -43 -88 -37 -57 rlinecurve
        213 -2 rmoveto
        67 -40 61 51 66 72 41 60 rlinecurve
        -138 53 -22 -62 -38 -76 -37 -58 rlinecurve
        return
      </CharString>
      <CharString index="21">
        439 425 -92 callgsubr
        return
      </CharString>
      <CharString index="22">
        rmoveto
        -16 callsubr
        -77 callsubr
      </CharString>
      <CharString index="23">
        -81 hmoveto
        3 -96 callgsubr
        return
      </CharString>
      <CharString index="24">
        -86 callgsubr
        -67 6 callgsubr
        return
      </CharString>
      <CharString index="25">
        -41 callgsubr
        endchar
      </CharString>
      <CharString index="26">
        185 18 -67 112 -145 hhcurveto
        -135 -119 -120 -158 return
      </CharString>
      <CharString index="27">
        rmoveto
        24 8 -34 -67 1 hvcurveto
        -20 -27 0 -1 -26 hvcurveto
        79 1 7 23 32 hhcurveto
        -180 -301 rmoveto
        -27 -12 22 37 36 8 30 55 -6 hvcurveto
        -40 2 -36 9 -31 vhcurveto
        -8 -10 -12 -4 -13 hhcurveto
        hintmask 01101111
        326 -106 rmoveto
        10 115 -174 3 -21 19 -1 86 rlinecurve
        201 4 rlineto
        185 13 -50 110 -107 hhcurveto
        -52 -41 -22 -44 -28 hvcurveto
        hintmask 01110111
        -34 44 -63 14 -119 5 -9 -117 rcurveline
        146 -5 23 -15 4 -75 rrcurveto
        -145 -2 -47 -64 -110 vvcurveto
        -82 41 -50 73 52 41 28 34 27 vhcurveto
        hintmask 01101111
        39 -43 76 -23 145 5 rrcurveto
        endchar
      </CharString>
      <CharString index="28">
        149 10 -43 callgsubr
        rlinecurve
        -203 hlineto
        return
      </CharString>
      <CharString index="29">
        rmoveto
        -158 82 -122 323 32 vhcurveto
        14 117 rlineto
        -70 callgsubr
        endchar
      </CharString>
      <CharString index="30">
        -47 callsubr
        hintmask 11111101
        -85 callsubr
      </CharString>
      <CharString index="31">
        rmoveto
        138 25 58 61 22 19 -9 -19 15 vhcurveto
        -136 -264 rlineto
        -4 27 -2 32 37 vvcurveto
        96 -218 rmoveto
        -23 -19 9 20 -15 hvcurveto
        136 265 rlineto
        5 -28 2 -32 -38 vvcurveto
        -138 -25 -58 -61 vhcurveto
        -22 -119 -34 callsubr
        hvcurveto
        hintmask 10000111
        97 -19 75 -37 51 vhcurveto
        36 70 rlineto
        hintmask 10001011
        -89 46 -25 -52 rlineto
        hintmask 01010011
        11 -26 -30 6 -33 hhcurveto
        -157 -100 -121 -227 -98 20 -76 37 -52 hvcurveto
        -36 -67 rlineto
        hintmask 00110011
        89 -46 26 51 rlineto
        hintmask 10010011
        -11 25 30 -5 32 hhcurveto
        endchar
      </CharString>
      <CharString index="32">
        -37 95 -48 158 -33 94 -145 -10 rcurveline
        27 -77 114 -304 35 -84 30 -14 rcurveline
        -25 -52 -35 -6 -109 -14 rrcurveto
        endchar
      </CharString>
      <CharString index="33">
        119 620 -135 hlineto
        6 -345 rlineto
        -4 hlineto
        -172 345 rlineto
        -128 -620 135 hlineto
        -6 345 rlineto
        5 hlineto
        return
      </CharString>
      <CharString index="34">
        132 -72 callsubr
        return
      </CharString>
      <CharString index="35">
        -215 -12 -65 54 159 vvcurveto
        128 34 53 240 -12 vhcurveto
        -8 140 rlineto
        -312 -2 -107 -151 -175 vvcurveto
        return
      </CharString>
      <CharString index="36">
        79 callgsubr
        -80 callsubr
      </CharString>
      <CharString index="37">
        -208 -15 -70 38 127 vvcurveto
        87 25 44 246 -15 vhcurveto
        -9 134 rlineto
        -311 4 -92 -129 -144 vvcurveto
        return
      </CharString>
      <CharString index="38">
        52 23 28 31 42 vvcurveto
        63 -68 40 -89 -111 -57 -60 -54 return
      </CharString>
      <CharString index="39">
        -63 callsubr
        hintmask 10011111
        -9 -693 -106 callgsubr
      </CharString>
      <CharString index="40">
        -50 callsubr
        hintmask 11011000
        -29 callsubr
        hintmask 11100100
        23 callgsubr
        hintmask 11011000
        -89 callsubr
        hintmask 11100100
        -91 callsubr
      </CharString>
      <CharString index="41">
        622 -107 callgsubr
        return
      </CharString>
      <CharString index="42">
        16 -21 26 -21 26 -33 callgsubr
        return
      </CharString>
      <CharString index="43">
        -8 120 -91 -21 263 98 147 16 callsubr
        hintmask 10101110
        70 callsubr
        -259 -55 -98 55 vlineto
        hintmask 01101110
        -263 vlineto
        hintmask 10101110
        29 callsubr
        -307 -206 rmoveto
        148 82 vlineto
        6 98 rlineto
        -88 hlineto
        hintmask 10110110
        147 39 callgsubr
        hintmask 10101110
        53 callsubr
        endchar
      </CharString>
      <CharString index="44">
        rmoveto
        hintmask 10001000
        241 76 79 76 -1 75 rrcurveto
        hintmask 10100000
        -1 78 -97 39 37 vvcurveto
        24 32 12 104 12 vhcurveto
        5 99 rlineto
        hintmask 11000000
        -88 9 -45 22 32 vvcurveto
        hintmask 10010000
        42 89 43 80 vvcurveto
        78 -75 46 -239 76 vhcurveto
        -47 -111 rlineto
        147 -43 72 -34 -46 vvcurveto
        hintmask 11000000
        -48 -83 -40 -64 vvcurveto
        -40 30 -39 82 -23 vhcurveto
        hintmask 10100000
        -80 -27 -30 -42 -37 vvcurveto
        hintmask 10001000
        -57 87 -47 -40 vvcurveto
        -35 -72 -29 -155 -41 vhcurveto
        endchar
      </CharString>
      <CharString index="45">
        -14 121 -89 -45 callgsubr
        return
      </CharString>
      <CharString index="46">
        rmoveto
        -57 callgsubr
        300 -10 98 76 93 vvcurveto
        return
      </CharString>
      <CharString index="47">
        -13 107 -77 -21 28 -21 208 87 100 119 return
      </CharString>
      <CharString index="48">
        -142 -8 rlineto
        -342 vlineto
        -123 53 -51 87 return
      </CharString>
      <CharString index="49">
        11 126 -269 -5 258 267 rlineto
        118 -413 vlineto
        -11 -125 262 4 -260 -266 rlineto
        -119 vlineto
        endchar
      </CharString>
      <CharString index="50">
        -271 16 -101 -84 -94 -128 258 -21 -55 vvcurveto
        -34 -61 -9 -183 9 vhcurveto
        -5 -120 rlineto
        return
      </CharString>
      <CharString index="51">
        rmoveto
        15 116 rlineto
        -139 3 -47 14 71 vvcurveto
        202 176 107 -176 145 vlineto
        -141 -13 rlineto
        -132 -90 vlineto
        -12 -107 rlineto
        102 -224 hlineto
        -135 75 -53 237 6 vhcurveto
        return
      </CharString>
      <CharString index="52">
        rmoveto
        58 53 63 81 36 hvcurveto
        -71 34 rlineto
        -50 -27 -20 -15 -13 hhcurveto
        return
      </CharString>
      <CharString index="53">
        rmoveto
        -72 callgsubr
        hintmask 01110000
        28 callgsubr
      </CharString>
      <CharString index="54">
        -620 145 200 vlineto
        69 2 rlineto
        -69 306 rmoveto
        90 10 46 -33 -73 vvcurveto
        -45 -21 -38 -35 -25 vhcurveto
        -80 -2 rlineto
        return
      </CharString>
      <CharString index="55">
        79 callgsubr
        -149 595 -277 hlineto
        -12 -102 146 -8 rlineto
        -485 -148 -106 vlineto
        return
      </CharString>
      <CharString index="56">
        734 -99 callgsubr
        return
      </CharString>
      <CharString index="57">
        -40 callgsubr
        123 -54 51 -86 return
      </CharString>
      <CharString index="58">
        17 -79 18 -82 17 -81 rrcurveto
        76 callgsubr
        return
      </CharString>
      <CharString index="59">
        18 callsubr
        hintmask 10011110
        -41 callsubr
        hintmask 01011110
        -83 callsubr
      </CharString>
      <CharString index="60">
        690 -100 callgsubr
        return
      </CharString>
      <CharString index="61">
        rmoveto
        63 -17 53 80 31 77 2 102 rlinecurve
        -147 -1 10 -81 -1 -79 -11 -81 rlinecurve
        return
      </CharString>
      <CharString index="62">
        -21 28 -21 498 -20 24 73 callgsubr
        return
      </CharString>
      <CharString index="63">
        rmoveto
        139 116 112 171 return
      </CharString>
      <CharString index="64">
        -49 206 -50 203 -58 206 return
      </CharString>
      <CharString index="65">
        19 callsubr
        hstemhm
        26 148.5 209.5 141 hintmask 01111000
        return
      </CharString>
      <CharString index="66">
        67 callgsubr
        -94 callgsubr
        return
      </CharString>
      <CharString index="67">
        rmoveto
        41 27 -23 -81 hvcurveto
        -295 142 346 vlineto
        return
      </CharString>
      <CharString index="68">
        47 135 46 153 30 105 rrcurveto
        -137 hlineto
        -91 -342 rlineto
        -10 hlineto
        return
      </CharString>
      <CharString index="69">
        -57 callsubr
        hintmask 10101110
        -7 56 rlineto
        hintmask 10011110
        -27 callsubr
        hintmask 11001110
        -18 callsubr
        endchar
      </CharString>
      <CharString index="70">
        -130 vlineto
        311 -8 107 105 102 -17 callgsubr
        return
      </CharString>
      <CharString index="71">
        12 callsubr
        hintmask 11010000
        -39 callgsubr
        hintmask 10110000
        -75 callgsubr
      </CharString>
      <CharString index="72">
        17 81 17 82 18 79 rrcurveto
        endchar
      </CharString>
      <CharString index="73">
        158 18 -144 268 rlineto
        57 41 40 51 76 vvcurveto
        130 -96 82 -329 -37 vhcurveto
        return
      </CharString>
      <CharString index="74">
        79 callsubr
        106 242 118 return
      </CharString>
      <CharString index="75">
        -140 -115 -118 -165 return
      </CharString>
      <CharString index="76">
        rmoveto
        -360 -121 360 hlineto
        return
      </CharString>
      <CharString index="77">
        rmoveto
        100 35 44 54 22 19 -7 -14 15 vhcurveto
        -138 -197 rlineto
        -5 21 -2 25 28 vvcurveto
        99 -168 rmoveto
        -22 -19 7 14 -15 hvcurveto
        139 195 rlineto
        4 -20 2 -24 -27 vvcurveto
        -101 -35 -44 -54 vhcurveto
        -26 -113 -44 callgsubr
        hvcurveto
        return
      </CharString>
      <CharString index="78">
        rmoveto
        -23 callsubr
        hintmask 10111000
        -5 151 rlineto
        hintmask 11011000
        17 callsubr
      </CharString>
      <CharString index="79">
        -118 279 -155 -6 195 -413 rlineto
        -204 vlineto
        endchar
      </CharString>
      <CharString index="80">
        137 hlineto
        13 117 20 236 13 267 rrcurveto
        -137 hlineto
        return
      </CharString>
      <CharString index="81">
        -12 117 114 83 103 115 return
      </CharString>
      <CharString index="82">
        54 callgsubr
        32 callsubr
        -5 callgsubr
        return
      </CharString>
      <CharString index="83">
        125 hlineto
        15 99 25 213 8 194 rrcurveto
        -132 hlineto
        return
      </CharString>
      <CharString index="84">
        -46 callsubr
        hstem
        88 46 callgsubr
        return
      </CharString>
      <CharString index="85">
        20 callsubr
        192 102 205 121 -9 -20 hstemhm
        69 145 return
      </CharString>
      <CharString index="86">
        437 557 -106 callsubr
        return
      </CharString>
      <CharString index="87">
        -38 callsubr
        -151 -82 -38 callsubr
        endchar
      </CharString>
      <CharString index="88">
        hstem
        56 147 145 46 callgsubr
        return
      </CharString>
      <CharString index="89">
        690 -60 callsubr
        return
      </CharString>
      <CharString index="90">
        147 -269 40 78 vvcurveto
        38 43 15 186 -13 vhcurveto
        return
      </CharString>
      <CharString index="91">
        -15 callgsubr
        hintmask 00111111
        return
      </CharString>
      <CharString index="92">
        55 callgsubr
        152 139 return
      </CharString>
      <CharString index="93">
        142 141 142 return
      </CharString>
      <CharString index="94">
        rmoveto
        100 81 -156 198 161 189 30 callgsubr
        415 -204 rmoveto
        100 81 -159 195 164 192 30 callgsubr
        endchar
      </CharString>
      <CharString index="95">
        392 -493 -91 callgsubr
        endchar
      </CharString>
      <CharString index="96">
        11 -54 11 -53 10 -52 rrcurveto
        return
      </CharString>
      <CharString index="97">
        rmoveto
        -209 -185 -81 -145 -146 vvcurveto
        -143 79 -142 206 -184 vhcurveto
        99 86 rlineto
        -184 155 -60 116 118 vvcurveto
        116 56 111 190 159 vhcurveto
        endchar
      </CharString>
      <CharString index="98">
        0 160 -160 163 -142 -21 506 -20 return
      </CharString>
      <CharString index="99">
        -22 callgsubr
        136 144 return
      </CharString>
      <CharString index="100">
        12 110 rlineto
        1 callgsubr
        return
      </CharString>
      <CharString index="101">
        hstem
        41 145 180 144 vstem
        return
      </CharString>
      <CharString index="102">
        71 -34 rlineto
        48 26 20 16 13 hhcurveto
        return
      </CharString>
      <CharString index="103">
        -100 1 68 236 -120 7 return
      </CharString>
      <CharString index="104">
        -1 -69 rlineto
        104 hlineto
        -1 68 rlineto
        return
      </CharString>
      <CharString index="105">
        145 rlineto
        return
      </CharString>
      <CharString index="106">
        -62 callgsubr
        -15 callsubr
        return
      </CharString>
      <CharString index="107">
        71 99 85 hstem
        103 104 133 106 vstem
        186 return
      </CharString>
      <CharString index="108">
        20 callgsubr
        21 27 27 85 34 vhcurveto
        return
      </CharString>
      <CharString index="109">
        -16 114 310 114 return
      </CharString>
      <CharString index="110">
        -33 callsubr
        hstem
        238 107 vstem
        439 return
      </CharString>
      <CharString index="111">
        25 callgsubr
        23 -20 hstemhm
        72 callsubr
        hintmask 10110000
        return
      </CharString>
      <CharString index="112">
        -220 79 146 -21 33 -21 121 78 return
      </CharString>
      <CharString index="113">
        -165 -47 callsubr
        return
      </CharString>
      <CharString index="114">
        rmoveto
        164 122 -472 hlineto
        -10 -122 rlineto
        170 -498 148 hlineto
        return
      </CharString>
      <CharString index="115">
        0 123.5 259.5 123 return
      </CharString>
      <CharString index="116">
        78 -21 callsubr
        return
      </CharString>
      <CharString index="117">
        5 callgsubr
        65 90 return
      </CharString>
      <CharString index="118">
        0 106 295 105 return
      </CharString>
      <CharString index="119">
        33 callgsubr
        88 callgsubr
        return
      </CharString>
      <CharString index="120">
        130 -125 125 hstemhm
        70 154 return
      </CharString>
      <CharString index="121">
        hstemhm
        106 107 -101 111 return
      </CharString>
      <CharString index="122">
        -16 126 510 -20 return
      </CharString>
      <CharString index="123">
        86 99 70 19 callgsubr
        return
      </CharString>
      <CharString index="124">
        -57 13 callsubr
        return
      </CharString>
      <CharString index="125">
        20 callsubr
        199 100.5 190.5 -20 30 -20 214 -20 32 -20 hstemhm
        74 142 return
      </CharString>
      <CharString index="126">
        hstem
        103 106 133 104 vstem
        274 return
      </CharString>
      <CharString index="127">
        -75 5 -27 15 21 vvcurveto
        return
      </CharString>
      <CharString index="128">
        -21 620 -20 return
      </CharString>
      <CharString index="129">
        -576 rmoveto
        79 callgsubr
        hintmask 11101000
        -80 callsubr
      </CharString>
      <CharString index="130">
        14 callsubr
        33 callsubr
        return
      </CharString>
      <CharString index="131">
        90 75 -33 callsubr
        hstemhm
        return
      </CharString>
      <CharString index="132">
        21 21 callgsubr
        return
      </CharString>
      <CharString index="133">
        22 callsubr
        88 callsubr
        return
      </CharString>
      <CharString index="134">
        -100 callgsubr
        hintmask 11110010
        return
      </CharString>
      <CharString index="135">
        -190 97 -146 324 30 vhcurveto
        endchar
      </CharString>
      <CharString index="136">
        24 callgsubr
        238 107 return
      </CharString>
      <CharString index="137">
        -100 82 -163 -208 -6 -138 rlineto
        return
      </CharString>
      <CharString index="138">
        rmoveto
        246 -115 95 -336 -42 vhcurveto
        return
      </CharString>
      <CharString index="139">
        92 hstem
        330 107 vstem
        131 return
      </CharString>
      <CharString index="140">
        21 -21 399 121 return
      </CharString>
      <CharString index="141">
        -16 119 -87 67 callsubr
        517 119 -17 -20 26 -20 hstemhm
        35 149 182 149 hintmask 10010011
        return
      </CharString>
      <CharString index="142">
        488 hmoveto
        -52 callgsubr
        return
      </CharString>
      <CharString index="143">
        145 hstemhm
        return
      </CharString>
      <CharString index="144">
        -9 callgsubr
        89 callgsubr
        199 132 hintmask 00111100
        return
      </CharString>
      <CharString index="145">
        14 -29 -34 8 -37 hhcurveto
        -32 callgsubr
        -71 16 -58 29 -42 hvcurveto
        -43 -59 rlineto
        return
      </CharString>
      <CharString index="146">
        vlineto
        127 13 31 -75 -144 vvcurveto
        return
      </CharString>
      <CharString index="147">
        88.5 return
      </CharString>
      <CharString index="148">
        26 callsubr
        42 callsubr
        return
      </CharString>
      <CharString index="149">
        rmoveto
        3 43 callgsubr
        -2 -165 rlineto
        return
      </CharString>
      <CharString index="150">
        165 rlineto
        -187 hlineto
        return
      </CharString>
      <CharString index="151">
        hstem
        203 46 callgsubr
        return
      </CharString>
      <CharString index="152">
        12 122 rlineto
        -258 return
      </CharString>
      <CharString index="153">
        147 vstem
        return
      </CharString>
      <CharString index="154">
        -8 120 -91 -21 508 16 callsubr
        hintmask 10011100
        return
      </CharString>
      <CharString index="155">
        79 258 9 callgsubr
        hintmask 11100100
        267 return
      </CharString>
      <CharString index="156">
        hstemhm
        124 137 -136 142 -53 136 -128 126 hintmask 10100000
        439 return
      </CharString>
      <CharString index="157">
        rmoveto
        -10 -112 rlineto
        350 882 -344 -112 208 -658 hlineto
        endchar
      </CharString>
      <CharString index="158">
        97 218 32 callgsubr
        return
      </CharString>
      <CharString index="159">
        0 -9 -7 -7 -9 -9 -7 6 55 callsubr
        return
      </CharString>
      <CharString index="160">
        hstemhm
        66 -14 callgsubr
        return
      </CharString>
      <CharString index="161">
        -33 -54 72 -64 hhcurveto
        return
      </CharString>
      <CharString index="162">
        hstemhm
        51 141 return
      </CharString>
      <CharString index="163">
        0 121 27 106 4 5 callsubr
        hstemhm
        254 118 hintmask 10111000
        return
      </CharString>
      <CharString index="164">
        2 -14 -32 rcurveline
        -1 callsubr
        endchar
      </CharString>
      <CharString index="165">
        106 hstem
        208 143 return
      </CharString>
      <CharString index="166">
        183 -20 32 -20 hstemhm
        return
      </CharString>
      <CharString index="167">
        hstemhm
        17 517 return
      </CharString>
      <CharString index="168">
        hintmask 000000000000000010000010000000000000000000000000
        return
      </CharString>
      <CharString index="169">
        -9 114 388 137 return
      </CharString>
      <CharString index="170">
        11 callgsubr
        21 -20 return
      </CharString>
      <CharString index="171">
        131 7 rlineto
        -6 108 -2 152 247 vvcurveto
        204 vlineto
        return
      </CharString>
      <CharString index="172">
        369 576 rmoveto
        9 -2 callgsubr
        -149 hlineto
        -9 -145 rlineto
        return
      </CharString>
      <CharString index="173">
        -7 116 290 107 132 -20 return
      </CharString>
      <CharString index="174">
        93 -172 vlineto
        return
      </CharString>
      <CharString index="175">
        94 148 return
      </CharString>
      <CharString index="176">
        140 vstem
        return
      </CharString>
      <CharString index="177">
        61 callsubr
        120 136 vstem
        120 return
      </CharString>
      <CharString index="178">
        -142 -12 rlineto
        -703 142 return
      </CharString>
      <CharString index="179">
        -155 -21 33 -21 return
      </CharString>
      <CharString index="180">
        -20 24 -20 return
      </CharString>
      <CharString index="181">
        -16 113 -70 -21 24 -21 400 113 -22 -20 return
      </CharString>
      <CharString index="182">
        70 -16 57 -27 41 vhcurveto
        44 63 -80 52 -35 -50 rlineto
        return
      </CharString>
      <CharString index="183">
        -113 hlineto
        return
      </CharString>
      <CharString index="184">
        -6 2 -3 5 4 2 2 4 1 vhcurveto
        5 hlineto
        return
      </CharString>
      <CharString index="185">
        -420 -119 420 hlineto
        return
      </CharString>
      <CharString index="186">
        12 106 rlineto
        return
      </CharString>
      <CharString index="187">
        rlineto
        211 return
      </CharString>
      <CharString index="188">
        hstemhm
        44 callsubr
        hintmask 10100000
        451 return
      </CharString>
      <CharString index="189">
        12 callgsubr
        hstemhm
        return
      </CharString>
      <CharString index="190">
        40 callgsubr
        119.5 -20 return
      </CharString>
      <CharString index="191">
        507 rmoveto
        return
      </CharString>
      <CharString index="192">
        -122 -185 vhcurveto
        76 4 rmoveto
        153 return
      </CharString>
      <CharString index="193">
        -151 2 3 140 -134 1 rlineto
        return
      </CharString>
      <CharString index="194">
        -3 callgsubr
        endchar
      </CharString>
      <CharString index="195">
        -11 -20 31 -20 return
      </CharString>
      <CharString index="196">
        hstemhm
        39 141 return
      </CharString>
      <CharString index="197">
        112 hstem
        return
      </CharString>
      <CharString index="198">
        149 -146.5 143 return
      </CharString>
      <CharString index="199">
        vvcurveto
        124 -80 77 -182 -24 vhcurveto
        return
      </CharString>
      <CharString index="200">
        -21 30 -21 return
      </CharString>
      <CharString index="201">
        119 hstem
        212 127 vstem
        return
      </CharString>
      <CharString index="202">
        hstem
        114 327 vstem
        340 return
      </CharString>
      <CharString index="203">
        76 vstem
        31 306 rmoveto
        -187 return
      </CharString>
      <CharString index="204">
        121 59 callgsubr
        return
      </CharString>
      <CharString index="205">
        107 188 146 -76 93 -104 return
      </CharString>
      <CharString index="206">
        -83 40 -49 55 61 48 55 87 return
      </CharString>
      <CharString index="207">
        -15 29 33 -7 37 hhcurveto
        endchar
      </CharString>
      <CharString index="208">
        hstem
        64 141 vstem
        return
      </CharString>
      <CharString index="209">
        113 -41 113 return
      </CharString>
      <CharString index="210">
        -233 110 return
      </CharString>
</ttFont>
